<svg width="25" height="24" viewBox="0 0 25 24" fill="none" xmlns="http://www.w3.org/2000/svg">
<path opacity="0.4" d="M12.5 22C18.0228 22 22.5 17.5228 22.5 12C22.5 6.47715 18.0228 2 12.5 2C6.97715 2 2.5 6.47715 2.5 12C2.5 17.5228 6.97715 22 12.5 22Z" fill="#C00F0C"/>
<path d="M13.5601 12.0004L15.8601 9.70035C16.1501 9.41035 16.1501 8.93035 15.8601 8.64035C15.5701 8.35035 15.0901 8.35035 14.8001 8.64035L12.5001 10.9404L10.2001 8.64035C9.91011 8.35035 9.43011 8.35035 9.14011 8.64035C8.85011 8.93035 8.85011 9.41035 9.14011 9.70035L11.4401 12.0004L9.14011 14.3004C8.85011 14.5904 8.85011 15.0704 9.14011 15.3604C9.29011 15.5104 9.48011 15.5804 9.67011 15.5804C9.86011 15.5804 10.0501 15.5104 10.2001 15.3604L12.5001 13.0604L14.8001 15.3604C14.9501 15.5104 15.1401 15.5804 15.3301 15.5804C15.5201 15.5804 15.7101 15.5104 15.8601 15.3604C16.1501 15.0704 16.1501 14.5904 15.8601 14.3004L13.5601 12.0004Z" fill="#C00F0C"/>
</svg>
