<svg width="32" height="33" viewBox="0 0 32 33" fill="none" xmlns="http://www.w3.org/2000/svg">
<g clip-path="url(#clip0_1416_35970)">
<circle cx="16" cy="16.5" r="16" fill="#287A6E" fill-opacity="0.15"/>
<path d="M9.0334 6.5H22.9667C23.9746 6.5 24.9411 6.90036 25.6537 7.61299C26.3664 8.32563 26.7667 9.29218 26.7667 10.3V21.7C26.7667 22.7078 26.3664 23.6744 25.6537 24.387C24.9411 25.0996 23.9746 25.5 22.9667 25.5H9.0334C8.02558 25.5 7.05903 25.0996 6.34639 24.387C5.63375 23.6744 5.2334 22.7078 5.2334 21.7V10.3C5.2334 9.29218 5.63375 8.32563 6.34639 7.61299C7.05903 6.90036 8.02558 6.5 9.0334 6.5ZM6.50007 21.7C6.50007 22.3719 6.76697 23.0162 7.24206 23.4913C7.71715 23.9664 8.36152 24.2333 9.0334 24.2333H15.3667V20.4333H6.50007V21.7ZM15.3667 15.3667H6.50007V19.1667H15.3667V15.3667ZM22.9667 24.2333C23.6386 24.2333 24.283 23.9664 24.7581 23.4913C25.2332 23.0162 25.5001 22.3719 25.5001 21.7V20.4333H16.6334V24.2333H22.9667ZM25.5001 15.3667H16.6334V19.1667H25.5001V15.3667ZM6.50007 14.1H15.3667V10.3H6.50007V14.1ZM16.6334 14.1H25.5001V10.3H16.6334V14.1Z" fill="#287A6E"/>
</g>
<defs>
<clipPath id="clip0_1416_35970">
<rect width="32" height="32" fill="white" transform="translate(0 0.5)"/>
</clipPath>
</defs>
</svg>
