<svg width="40" height="40" viewBox="0 0 40 40" fill="none" xmlns="http://www.w3.org/2000/svg">
<rect width="40" height="40" rx="8" fill="#0295DB" fill-opacity="0.12"/>
<path d="M22.7274 14H28.7274L22.7274 8V14ZM22.7274 14.727H22.0004V8H12.9104C12.0054 8 11.2734 8.732 11.2734 9.636V30.364C11.2734 31.268 12.0054 32 12.9094 32H27.0914C27.9954 32 28.7274 31.268 28.7274 30.364V14.727H22.7274ZM15.9104 25.318C15.8029 25.3179 15.6964 25.2967 15.5971 25.2555C15.4977 25.2142 15.4075 25.1539 15.3315 25.0778C15.2555 25.0017 15.1952 24.9113 15.1541 24.812C15.113 24.7126 15.0919 24.6061 15.0919 24.4985C15.092 24.3909 15.1133 24.2845 15.1545 24.1851C15.1957 24.0858 15.2561 23.9955 15.3322 23.9195C15.4083 23.8435 15.4986 23.7832 15.598 23.7422C15.6974 23.7011 15.8039 23.6799 15.9114 23.68C16.1286 23.68 16.337 23.7663 16.4906 23.9199C16.6442 24.0735 16.7304 24.2818 16.7304 24.499C16.7304 24.7162 16.6442 24.9245 16.4906 25.0781C16.337 25.2317 16.1276 25.318 15.9104 25.318ZM15.9104 22.045C15.8005 22.0488 15.691 22.0304 15.5884 21.9909C15.4857 21.9514 15.3921 21.8917 15.3131 21.8153C15.234 21.7389 15.1711 21.6473 15.1282 21.546C15.0853 21.4448 15.0633 21.3359 15.0633 21.226C15.0634 21.116 15.0856 21.0072 15.1286 20.906C15.1717 20.8048 15.2346 20.7133 15.3138 20.637C15.3929 20.5607 15.4866 20.501 15.5893 20.4617C15.692 20.4224 15.8015 20.4041 15.9114 20.408C16.1236 20.4154 16.3245 20.5049 16.472 20.6576C16.6194 20.8103 16.7018 21.0142 16.7018 21.2265C16.7018 21.4388 16.6194 21.6427 16.472 21.7954C16.3245 21.9481 16.1226 22.0376 15.9104 22.045ZM15.9104 18.773C15.8029 18.7729 15.6964 18.7517 15.5971 18.7105C15.4977 18.6692 15.4075 18.6089 15.3315 18.5328C15.2555 18.4567 15.1952 18.3663 15.1541 18.267C15.113 18.1676 15.0919 18.0611 15.0919 17.9535C15.092 17.8459 15.1133 17.7395 15.1545 17.6401C15.1957 17.5408 15.2561 17.4505 15.3322 17.3745C15.4083 17.2985 15.4986 17.2382 15.598 17.1972C15.6974 17.1561 15.8039 17.1349 15.9114 17.135C16.1286 17.135 16.337 17.2213 16.4906 17.3749C16.6442 17.5285 16.7304 17.7368 16.7304 17.954C16.7304 18.1712 16.6442 18.3795 16.4906 18.5331C16.337 18.6867 16.1276 18.773 15.9104 18.773ZM24.9104 25.182H18.0924V23.818H24.9104V25.182ZM24.9104 21.909H18.0924V20.545H24.9104V21.909ZM24.9104 18.636H18.0924V17.273H24.9104V18.636Z" fill="#0295DB"/>
</svg>
