<svg width="32" height="32" viewBox="0 0 32 32" fill="none" xmlns="http://www.w3.org/2000/svg">
<g clip-path="url(#clip0_1445_16810)">
<circle cx="16" cy="16" r="16" fill="#287A6E" fill-opacity="0.15"/>
<path d="M21.269 17.231C20.7223 17.231 20.2523 17.034 19.859 16.64C19.4657 16.246 19.269 15.776 19.269 15.23C19.269 14.684 19.4657 14.214 19.859 13.82C20.2523 13.426 20.7223 13.2294 21.269 13.23C21.815 13.23 22.285 13.4267 22.679 13.82C23.0723 14.214 23.269 14.684 23.269 15.23C23.269 15.7767 23.0723 16.2467 22.679 16.64C22.285 17.0334 21.815 17.23 21.269 17.23M16.769 21.423V21.331C16.769 21.0204 16.8463 20.739 17.001 20.487C17.1557 20.2344 17.3757 20.0527 17.661 19.942C18.2357 19.7047 18.8243 19.5267 19.427 19.408C20.0303 19.29 20.6443 19.231 21.269 19.231C21.893 19.231 22.5067 19.29 23.11 19.408C23.7133 19.5267 24.302 19.7047 24.876 19.942C25.1613 20.0527 25.3813 20.2344 25.536 20.487C25.6907 20.739 25.768 21.0204 25.768 21.331V21.423C25.768 21.6517 25.6907 21.8434 25.536 21.998C25.3813 22.1534 25.1897 22.231 24.961 22.231H17.576C17.3473 22.231 17.1557 22.1534 17.001 21.998C16.8463 21.8427 16.769 21.651 16.769 21.423ZM13.999 15C13.1743 15 12.4683 14.706 11.881 14.118C11.2937 13.53 11 12.824 11 12C11 11.176 11.2933 10.4694 11.88 9.88002C12.4667 9.29068 13.1733 8.99735 14 9.00002C14.8267 9.00268 15.5327 9.29602 16.118 9.88002C16.7033 10.464 16.9973 11.1707 17 12C17.0027 12.8294 16.7087 13.5354 16.118 14.118C15.5273 14.7007 14.8213 14.9947 14 15M7 20.582C7 20.15 7.119 19.753 7.357 19.391C7.59567 19.029 7.92 18.7614 8.33 18.588C9.21467 18.1394 10.1333 17.801 11.086 17.573C12.0387 17.345 13.01 17.231 14 17.231C14.4033 17.231 14.807 17.252 15.211 17.294C15.615 17.336 16.019 17.3917 16.423 17.461L15.996 17.907L15.569 18.354C15.307 18.3027 15.0453 18.2694 14.784 18.254C14.5227 18.2387 14.2613 18.231 14 18.231C13.0973 18.231 12.2057 18.3284 11.325 18.523C10.4443 18.7177 9.605 19.0317 8.807 19.465C8.589 19.587 8.4 19.739 8.24 19.921C8.08 20.103 8 20.324 8 20.584V21.23H14V21.417C14 21.589 14.0263 21.7444 14.079 21.883C14.1323 22.0217 14.2063 22.1374 14.301 22.23H8.038C7.74467 22.23 7.498 22.1304 7.298 21.931C7.09933 21.7317 7 21.4854 7 21.192V20.582ZM14 14C14.55 14 15.0207 13.804 15.412 13.412C15.8033 13.02 15.9993 12.5494 16 12C16.0007 11.4507 15.8047 10.9797 15.412 10.587C15.0193 10.1944 14.5487 9.99868 14 10C13.4513 10.0014 12.9803 10.197 12.587 10.587C12.1937 10.977 11.998 11.448 12 12C12.002 12.552 12.1977 13.0227 12.587 13.412C12.9763 13.8014 13.4473 13.9974 14 14Z" fill="#287A6E"/>
</g>
<defs>
<clipPath id="clip0_1445_16810">
<rect width="32" height="32" fill="white"/>
</clipPath>
</defs>
</svg>
