<svg width="32" height="32" viewBox="0 0 32 32" fill="none" xmlns="http://www.w3.org/2000/svg">
<g clip-path="url(#clip0_1445_16798)">
<circle cx="16" cy="16" r="16" fill="#287A6E" fill-opacity="0.15"/>
<path d="M25.78 9.77985C25.9125 9.63767 25.9846 9.44963 25.9812 9.25532C25.9777 9.06102 25.899 8.87564 25.7616 8.73822C25.6242 8.60081 25.4388 8.5221 25.2445 8.51867C25.0502 8.51524 24.8622 8.58737 24.72 8.71985L17.22 16.2198C17.1463 16.2885 17.0872 16.3713 17.0462 16.4633C17.0052 16.5553 16.9832 16.6546 16.9814 16.7553C16.9796 16.856 16.9982 16.9561 17.0359 17.0494C17.0736 17.1428 17.1297 17.2277 17.201 17.2989C17.2722 17.3701 17.357 17.4262 17.4504 17.464C17.5438 17.5017 17.6438 17.5202 17.7445 17.5184C17.8452 17.5167 17.9445 17.4946 18.0365 17.4536C18.1285 17.4126 18.2113 17.3535 18.28 17.2798L25.78 9.77985ZM25.947 11.0278C25.9823 11.1965 26 11.3705 26 11.5498V18.4498C26 18.7847 25.934 19.1163 25.8059 19.4257C25.6777 19.7351 25.4899 20.0162 25.2531 20.253C25.0163 20.4898 24.7352 20.6776 24.4258 20.8057C24.1165 20.9339 23.7849 20.9998 23.45 20.9998H8.55C8.21513 20.9998 7.88354 20.9339 7.57416 20.8057C7.26478 20.6776 6.98367 20.4898 6.74688 20.253C6.51009 20.0162 6.32226 19.7351 6.19411 19.4257C6.06596 19.1163 6 18.7847 6 18.4498V11.5498C6 10.8735 6.26866 10.2249 6.74688 9.74672C7.2251 9.26851 7.8737 8.99985 8.55 8.99985H23.025L21.525 10.4998H8.55C7.97 10.4998 7.5 10.9698 7.5 11.5498V18.4498C7.5 19.0298 7.97 19.4998 8.55 19.4998H23.45C24.03 19.4998 24.5 19.0298 24.5 18.4498V12.4748L25.947 11.0278ZM8.5 13.2498C8.5 13.0509 8.57902 12.8602 8.71967 12.7195C8.86032 12.5789 9.05109 12.4998 9.25 12.4998H11.25C11.4489 12.4998 11.6397 12.5789 11.7803 12.7195C11.921 12.8602 12 13.0509 12 13.2498C12 13.4488 11.921 13.6395 11.7803 13.7802C11.6397 13.9208 11.4489 13.9998 11.25 13.9998H9.25C9.05109 13.9998 8.86032 13.9208 8.71967 13.7802C8.57902 13.6395 8.5 13.4488 8.5 13.2498ZM8.5 16.7498C8.5 16.5509 8.57902 16.3602 8.71967 16.2195C8.86032 16.0789 9.05109 15.9998 9.25 15.9998H14.25C14.4489 15.9998 14.6397 16.0789 14.7803 16.2195C14.921 16.3602 15 16.5509 15 16.7498C15 16.9488 14.921 17.1395 14.7803 17.2802C14.6397 17.4208 14.4489 17.4998 14.25 17.4998H9.25C9.05109 17.4998 8.86032 17.4208 8.71967 17.2802C8.57902 17.1395 8.5 16.9488 8.5 16.7498Z" fill="#287A6E"/>
</g>
<defs>
<clipPath id="clip0_1445_16798">
<rect width="32" height="32" fill="white"/>
</clipPath>
</defs>
</svg>
