<svg width="41" height="40" viewBox="0 0 41 40" fill="none" xmlns="http://www.w3.org/2000/svg">
<rect x="0.5" width="40" height="40" rx="8" fill="#FF473D" fill-opacity="0.12"/>
<path opacity="0.4" d="M20.5 30C26.0228 30 30.5 25.5228 30.5 20C30.5 14.4772 26.0228 10 20.5 10C14.9772 10 10.5 14.4772 10.5 20C10.5 25.5228 14.9772 30 20.5 30Z" fill="#FF473D"/>
<path d="M21.5594 20.0004L23.8594 17.7004C24.1494 17.4104 24.1494 16.9304 23.8594 16.6404C23.5694 16.3504 23.0894 16.3504 22.7994 16.6404L20.4994 18.9404L18.1994 16.6404C17.9094 16.3504 17.4294 16.3504 17.1394 16.6404C16.8494 16.9304 16.8494 17.4104 17.1394 17.7004L19.4394 20.0004L17.1394 22.3004C16.8494 22.5904 16.8494 23.0704 17.1394 23.3604C17.2894 23.5104 17.4794 23.5804 17.6694 23.5804C17.8594 23.5804 18.0494 23.5104 18.1994 23.3604L20.4994 21.0604L22.7994 23.3604C22.9494 23.5104 23.1394 23.5804 23.3294 23.5804C23.5194 23.5804 23.7094 23.5104 23.8594 23.3604C24.1494 23.0704 24.1494 22.5904 23.8594 22.3004L21.5594 20.0004Z" fill="#FF473D"/>
</svg>
