<svg width="25" height="25" viewBox="0 0 25 25" fill="none" xmlns="http://www.w3.org/2000/svg">
<path d="M18.31 4.97C18.23 4.97 18.15 4.95 18.08 4.91C16.16 3.92 14.5 3.5 12.51 3.5C10.53 3.5 8.65 3.97 6.94 4.91C6.7 5.04 6.4 4.95 6.26 4.71C6.19763 4.59305 6.18364 4.45629 6.22104 4.32913C6.25844 4.20197 6.34424 4.09457 6.46 4.03C8.32 3.02 10.36 2.5 12.51 2.5C14.64 2.5 16.5 2.97 18.54 4.02C18.79 4.15 18.88 4.45 18.75 4.69C18.7105 4.77336 18.6482 4.84387 18.5703 4.8934C18.4925 4.94294 18.4023 4.96949 18.31 4.97ZM4 10.22C3.90782 10.2209 3.8172 10.1962 3.7382 10.1487C3.6592 10.1012 3.5949 10.0327 3.55244 9.95088C3.50998 9.86906 3.49101 9.77708 3.49764 9.68514C3.50427 9.59319 3.53624 9.50488 3.59 9.43C4.58 8.03 5.84 6.93 7.34 6.16C10.48 4.54 14.5 4.53 17.65 6.15C19.15 6.92 20.41 8.01 21.4 9.4C21.4384 9.45374 21.4657 9.51455 21.4804 9.57891C21.4952 9.64328 21.497 9.70993 21.4859 9.77501C21.4747 9.84009 21.4508 9.90232 21.4154 9.9581C21.3801 10.0139 21.3341 10.0621 21.28 10.1C21.05 10.26 20.74 10.21 20.58 9.98C19.7039 8.7407 18.5408 7.73196 17.19 7.04C14.32 5.57 10.65 5.57 7.79 7.05C6.43 7.75 5.29 8.75 4.39 10.01C4.31 10.15 4.16 10.22 4 10.22ZM10.25 22.29C10.1844 22.2908 10.1194 22.2779 10.0591 22.252C9.99885 22.2262 9.94464 22.188 9.9 22.14C9.03 21.27 8.56 20.71 7.89 19.5C7.2 18.27 6.84 16.77 6.84 15.16C6.84 12.19 9.38 9.77 12.5 9.77C15.62 9.77 18.16 12.19 18.16 15.16C18.16 15.44 17.94 15.66 17.66 15.66C17.38 15.66 17.16 15.44 17.16 15.16C17.16 12.74 15.07 10.77 12.5 10.77C9.93 10.77 7.84 12.74 7.84 15.16C7.84 16.6 8.16 17.93 8.77 19.01C9.41 20.16 9.85 20.65 10.62 21.43C10.81 21.63 10.81 21.94 10.62 22.14C10.51 22.24 10.38 22.29 10.25 22.29ZM17.42 20.44C16.23 20.44 15.18 20.14 14.32 19.55C12.83 18.54 11.94 16.9 11.94 15.16C11.94 14.88 12.16 14.66 12.44 14.66C12.72 14.66 12.94 14.88 12.94 15.16C12.94 16.57 13.66 17.9 14.88 18.72C15.59 19.2 16.42 19.43 17.42 19.43C17.66 19.43 18.06 19.4 18.46 19.33C18.73 19.28 18.99 19.46 19.04 19.74C19.09 20.01 18.91 20.27 18.63 20.32C18.06 20.43 17.56 20.44 17.42 20.44ZM15.41 22.5C15.37 22.5 15.32 22.49 15.28 22.48C13.69 22.04 12.65 21.45 11.56 20.38C10.8694 19.6979 10.3218 18.8849 9.9492 17.9886C9.5766 17.0923 9.38649 16.1307 9.39 15.16C9.39 13.54 10.77 12.22 12.47 12.22C14.17 12.22 15.55 13.54 15.55 15.16C15.55 16.23 16.48 17.1 17.63 17.1C18.78 17.1 19.71 16.23 19.71 15.16C19.71 11.39 16.46 8.33 12.46 8.33C9.62 8.33 7.02 9.91 5.85 12.36C5.46 13.17 5.26 14.12 5.26 15.16C5.26 15.94 5.33 17.17 5.93 18.77C6.03 19.03 5.9 19.32 5.64 19.41C5.38 19.51 5.09 19.37 5 19.12C4.51727 17.8555 4.26987 16.5135 4.27 15.16C4.27 13.96 4.5 12.87 4.95 11.92C6.28 9.13 9.23 7.32 12.46 7.32C17.01 7.32 20.71 10.83 20.71 15.15C20.71 16.77 19.33 18.09 17.63 18.09C15.93 18.09 14.55 16.77 14.55 15.15C14.55 14.08 13.62 13.21 12.47 13.21C11.32 13.21 10.39 14.08 10.39 15.15C10.39 16.86 11.05 18.46 12.26 19.66C13.21 20.6 14.12 21.12 15.53 21.51C15.8 21.58 15.95 21.86 15.88 22.12C15.83 22.35 15.62 22.5 15.41 22.5Z" fill="#7F8987"/>
</svg>
