<svg width="48" height="48" viewBox="0 0 48 48" fill="none" xmlns="http://www.w3.org/2000/svg">
<circle cx="24" cy="24" r="24" fill="#D6E5E2"/>
<path d="M24.8832 31.1989C24.0498 31.1989 23.2994 31.0331 22.6317 30.7017C21.9641 30.3703 21.4291 29.9157 21.0266 29.3381C20.6242 28.7604 20.404 28.1023 20.3661 27.3636H22.0707C22.137 28.0218 22.4353 28.5663 22.9656 28.9972C23.5006 29.4233 24.1398 29.6364 24.8832 29.6364C25.4798 29.6364 26.0101 29.4967 26.4741 29.2173C26.9428 28.938 27.3098 28.5545 27.5749 28.0668C27.8448 27.5743 27.9798 27.018 27.9798 26.3977C27.9798 25.7633 27.8401 25.1974 27.5607 24.7003C27.2861 24.1984 26.9073 23.803 26.4244 23.5142C25.9414 23.2254 25.3898 23.0786 24.7695 23.0739C24.3245 23.0691 23.8675 23.1378 23.3988 23.2798C22.93 23.4171 22.5442 23.5947 22.2411 23.8125L20.5934 23.6136L21.4741 16.4545H29.0309V18.017H22.9513L22.44 22.3068H22.5252C22.8235 22.0701 23.1976 21.8736 23.6474 21.7173C24.0972 21.5611 24.5659 21.483 25.0536 21.483C25.9438 21.483 26.7369 21.696 27.4329 22.1222C28.1336 22.5436 28.6829 23.1212 29.0806 23.8551C29.4831 24.589 29.6843 25.4271 29.6843 26.3693C29.6843 27.2973 29.476 28.1259 29.0593 28.8551C28.6474 29.5795 28.0792 30.1525 27.3548 30.5739C26.6303 30.9905 25.8065 31.1989 24.8832 31.1989Z" fill="#287A6E"/>
</svg>
