<svg width="24" height="24" viewBox="0 0 24 24" fill="none" xmlns="http://www.w3.org/2000/svg">
<path d="M2.40039 5.9999C2.40039 5.04512 2.77968 4.12945 3.45481 3.45432C4.12994 2.77919 5.04561 2.3999 6.00039 2.3999H15.6004C16.5552 2.3999 17.4708 2.77919 18.146 3.45432C18.8211 4.12945 19.2004 5.04512 19.2004 5.9999V8.4419C19.0017 8.41358 18.8011 8.39955 18.6004 8.3999H18.0004V5.9999C18.0004 5.36338 17.7475 4.75293 17.2974 4.30285C16.8474 3.85276 16.2369 3.5999 15.6004 3.5999H6.00039C5.36387 3.5999 4.75342 3.85276 4.30333 4.30285C3.85325 4.75293 3.60039 5.36338 3.60039 5.9999V15.5999C3.60039 16.2364 3.85325 16.8469 4.30333 17.297C4.75342 17.747 5.36387 17.9999 6.00039 17.9999H8.40039V18.5999C8.40039 18.8039 8.41439 19.0039 8.44239 19.1999H6.00039C5.04561 19.1999 4.12994 18.8206 3.45481 18.1455C2.77968 17.4704 2.40039 16.5547 2.40039 15.5999V5.9999ZM6.60039 8.3999H12.6004C11.4556 8.3999 10.4188 8.8571 9.66039 9.5999H6.60039C6.44126 9.5999 6.28865 9.53669 6.17613 9.42417C6.06361 9.31164 6.00039 9.15903 6.00039 8.9999C6.00039 8.84077 6.06361 8.68816 6.17613 8.57564C6.28865 8.46312 6.44126 8.3999 6.60039 8.3999ZM6.00039 6.5999C6.00039 6.44077 6.06361 6.28816 6.17613 6.17564C6.28865 6.06312 6.44126 5.9999 6.60039 5.9999H15.0004C15.1595 5.9999 15.3121 6.06312 15.4247 6.17564C15.5372 6.28816 15.6004 6.44077 15.6004 6.5999C15.6004 6.75903 15.5372 6.91164 15.4247 7.02417C15.3121 7.13669 15.1595 7.1999 15.0004 7.1999H6.60039C6.44126 7.1999 6.28865 7.13669 6.17613 7.02417C6.06361 6.91164 6.00039 6.75903 6.00039 6.5999ZM12.6004 9.5999C11.8047 9.5999 11.0417 9.91597 10.4791 10.4786C9.91646 11.0412 9.60039 11.8043 9.60039 12.5999V18.5999C9.60039 19.3956 9.91646 20.1586 10.4791 20.7212C11.0417 21.2838 11.8047 21.5999 12.6004 21.5999H18.6004C19.396 21.5999 20.1591 21.2838 20.7217 20.7212C21.2843 20.1586 21.6004 19.3956 21.6004 18.5999V12.5999C21.6004 11.8043 21.2843 11.0412 20.7217 10.4786C20.1591 9.91597 19.396 9.5999 18.6004 9.5999H12.6004ZM10.8004 12.5999C10.8004 12.1225 10.99 11.6647 11.3276 11.3271C11.6652 10.9895 12.123 10.7999 12.6004 10.7999H18.6004C19.0778 10.7999 19.5356 10.9895 19.8732 11.3271C20.2107 11.6647 20.4004 12.1225 20.4004 12.5999V13.1999H10.8004V12.5999ZM10.8004 18.5999V14.3999H20.4004V18.5999C20.4004 19.0773 20.2107 19.5351 19.8732 19.8727C19.5356 20.2103 19.0778 20.3999 18.6004 20.3999H12.6004C12.123 20.3999 11.6652 20.2103 11.3276 19.8727C10.99 19.5351 10.8004 19.0773 10.8004 18.5999Z" fill="#287A6E"/>
</svg>
