<svg width="21" height="21" viewBox="0 0 21 21" fill="none" xmlns="http://www.w3.org/2000/svg">
<path d="M20.3055 8.5415H19.5V8.5H10.5V12.5H16.1515C15.327 14.8285 13.1115 16.5 10.5 16.5C7.1865 16.5 4.5 13.8135 4.5 10.5C4.5 7.1865 7.1865 4.5 10.5 4.5C12.0295 4.5 13.421 5.077 14.4805 6.0195L17.309 3.191C15.523 1.5265 13.134 0.5 10.5 0.5C4.9775 0.5 0.5 4.9775 0.5 10.5C0.5 16.0225 4.9775 20.5 10.5 20.5C16.0225 20.5 20.5 16.0225 20.5 10.5C20.5 9.8295 20.431 9.175 20.3055 8.5415Z" fill="#FFC107"/>
</svg>
