<svg width="40" height="40" viewBox="0 0 40 40" fill="none" xmlns="http://www.w3.org/2000/svg">
<rect width="40" height="40" rx="8" fill="#DF8E03" fill-opacity="0.16"/>
<path opacity="0.4" d="M26.3495 27.68C25.7995 29.09 24.4595 30 22.9495 30H17.0495C15.5295 30 14.1995 29.09 13.6495 27.68C13.0995 26.26 13.4795 24.69 14.5995 23.67L18.6495 20H21.3595L25.3995 23.67C26.5195 24.69 26.8895 26.26 26.3495 27.68Z" fill="#DF8E03"/>
<path d="M21.82 26.1403H18.18C17.8 26.1403 17.5 25.8303 17.5 25.4603C17.5 25.0803 17.81 24.7803 18.18 24.7803H21.82C22.2 24.7803 22.5 25.0903 22.5 25.4603C22.5 25.8303 22.19 26.1403 21.82 26.1403Z" fill="#DF8E03"/>
<path d="M26.3506 12.32C25.8006 10.91 24.4606 10 22.9506 10H17.0506C15.5406 10 14.2006 10.91 13.6506 12.32C13.1106 13.74 13.4806 15.31 14.6106 16.33L18.6506 20H21.3606L25.4006 16.33C26.5206 15.31 26.8906 13.74 26.3506 12.32ZM21.8206 15.23H18.1806C17.8006 15.23 17.5006 14.92 17.5006 14.55C17.5006 14.18 17.8106 13.87 18.1806 13.87H21.8206C22.2006 13.87 22.5006 14.18 22.5006 14.55C22.5006 14.92 22.1906 15.23 21.8206 15.23Z" fill="#DF8E03"/>
</svg>
