<svg width="32" height="33" viewBox="0 0 32 33" fill="none" xmlns="http://www.w3.org/2000/svg">
<g clip-path="url(#clip0_1416_35955)">
<circle cx="16" cy="16.5" r="16" fill="#287A6E" fill-opacity="0.15"/>
<path d="M9.25 6.5C8.38805 6.5 7.5614 6.84241 6.9519 7.4519C6.34241 8.0614 6 8.88805 6 9.75V21.25C6 22.112 6.34241 22.9386 6.9519 23.5481C7.5614 24.1576 8.38805 24.5 9.25 24.5H13.075C13.0264 24.2529 13.0013 24.0018 13 23.75V23H9.25C8.78587 23 8.34075 22.8156 8.01256 22.4874C7.68437 22.1592 7.5 21.7141 7.5 21.25V9.75C7.5 8.784 8.284 8 9.25 8H19.75C20.716 8 21.5 8.784 21.5 9.75V13.5H23V9.75C23 8.88805 22.6576 8.0614 22.0481 7.4519C21.4386 6.84241 20.612 6.5 19.75 6.5H9.25ZM16.75 13.5H10.75C10.5511 13.5 10.3603 13.579 10.2197 13.7197C10.079 13.8603 10 14.0511 10 14.25C10 14.4489 10.079 14.6397 10.2197 14.7803C10.3603 14.921 10.5511 15 10.75 15H13.75C14.0988 14.5337 14.5516 14.1553 15.0724 13.8948C15.5933 13.6344 16.1677 13.4992 16.75 13.5ZM10.75 10.5C10.5511 10.5 10.3603 10.579 10.2197 10.7197C10.079 10.8603 10 11.0511 10 11.25C10 11.4489 10.079 11.6397 10.2197 11.7803C10.3603 11.921 10.5511 12 10.75 12H18.25C18.4489 12 18.6397 11.921 18.7803 11.7803C18.921 11.6397 19 11.4489 19 11.25C19 11.0511 18.921 10.8603 18.7803 10.7197C18.6397 10.579 18.4489 10.5 18.25 10.5H10.75ZM14 17.25C14 16.5207 14.2897 15.8212 14.8055 15.3055C15.3212 14.7897 16.0207 14.5 16.75 14.5H23.25C23.9793 14.5 24.6788 14.7897 25.1945 15.3055C25.7103 15.8212 26 16.5207 26 17.25V23.75C26 24.4793 25.7103 25.1788 25.1945 25.6945C24.6788 26.2103 23.9793 26.5 23.25 26.5H16.75C16.0207 26.5 15.3212 26.2103 14.8055 25.6945C14.2897 25.1788 14 24.4793 14 23.75V17.25ZM15.5 19.5V23.75C15.5 24.44 16.06 25 16.75 25H23.25C23.94 25 24.5 24.44 24.5 23.75V19.5H15.5ZM24.5 18V17.25C24.5 16.56 23.94 16 23.25 16H16.75C16.06 16 15.5 16.56 15.5 17.25V18H24.5Z" fill="#287A6E"/>
</g>
<defs>
<clipPath id="clip0_1416_35955">
<rect width="32" height="32" fill="white" transform="translate(0 0.5)"/>
</clipPath>
</defs>
</svg>
