<svg width="25" height="25" viewBox="0 0 25 25" fill="none" xmlns="http://www.w3.org/2000/svg">
<path d="M3.19922 10.7143L9.77472 15.4111C10.3346 15.8109 11.0639 15.8109 11.6237 15.4111L18.1992 10.7143M4.86589 20.5357H16.5326C17.453 20.5357 18.1992 19.7362 18.1992 18.75V9.82142C18.1992 8.8352 17.453 8.03571 16.5326 8.03571H4.86589C3.94541 8.03571 3.19922 8.8352 3.19922 9.82142V18.75C3.19922 19.7362 3.94541 20.5357 4.86589 20.5357Z" stroke="#3F3F46" stroke-width="1.2" stroke-linecap="round" stroke-linejoin="round"/>
<ellipse cx="17.35" cy="9.14283" rx="7.35005" ry="7.28571" fill="#287A6E"/>
<path d="M17.9101 13V11.196H14.1481V9.942L17.8221 4.805H19.3841V9.942H20.5831V11.196H19.3841V13H17.9101ZM15.2481 10.481L14.9841 9.942H17.9101V5.982L18.2951 6.103L15.2481 10.481Z" fill="white"/>
</svg>
