<svg width="25" height="25" viewBox="0 0 25 25" fill="none" xmlns="http://www.w3.org/2000/svg">
<path d="M3.2002 10.7157L9.77569 15.4125C10.3355 15.8123 11.0649 15.8123 11.6247 15.4125L18.2002 10.7157M4.86686 20.5371H16.5335C17.454 20.5371 18.2002 19.7376 18.2002 18.7514V9.82282C18.2002 8.8366 17.454 8.03711 16.5335 8.03711H4.86686C3.94639 8.03711 3.2002 8.8366 3.2002 9.82282V18.7514C3.2002 19.7376 3.94639 20.5371 4.86686 20.5371Z" stroke="#3F3F46" stroke-width="1.2" stroke-linecap="round" stroke-linejoin="round"/>
<ellipse cx="17.35" cy="9.14314" rx="7.35005" ry="7.28571" fill="#7F56D9"/>
<path d="M14.575 13V11.867L16.797 9.546C17.237 9.084 17.5743 8.71733 17.809 8.446C18.051 8.16733 18.2196 7.929 18.315 7.731C18.4103 7.533 18.458 7.33133 18.458 7.126C18.458 6.78133 18.348 6.51 18.128 6.312C17.9153 6.114 17.6403 6.015 17.303 6.015C16.951 6.015 16.6466 6.11767 16.39 6.323C16.1333 6.521 15.9463 6.81433 15.829 7.203L14.52 6.796C14.608 6.36333 14.7876 5.98933 15.059 5.674C15.3303 5.35133 15.6603 5.10567 16.049 4.937C16.445 4.761 16.863 4.673 17.303 4.673C17.831 4.673 18.293 4.76833 18.689 4.959C19.0923 5.14967 19.404 5.41733 19.624 5.762C19.8513 6.10667 19.965 6.51 19.965 6.972C19.965 7.26533 19.91 7.555 19.8 7.841C19.69 8.127 19.525 8.42033 19.305 8.721C19.085 9.01433 18.799 9.34433 18.447 9.711L16.522 11.735H20.075V13H14.575Z" fill="white"/>
</svg>
