<svg width="32" height="32" viewBox="0 0 32 32" fill="none" xmlns="http://www.w3.org/2000/svg">
<g clip-path="url(#clip0_1416_35963)">
<circle cx="16" cy="16" r="16" fill="#287A6E" fill-opacity="0.15"/>
<path d="M16 26.75C15.22 26.75 14.46 26.35 13.94 25.65L12.93 24.3C12.72 24.02 12.44 23.86 12.14 23.84C11.84 23.83 11.54 23.96 11.3 24.21L10.73 23.7L11.28 24.21C9.84 25.75 8.73 25.63 8.2 25.42C7.66 25.21 6.75 24.52 6.75 22.3V11.04C6.75 6.6 8.03 5.25 12.22 5.25H19.78C23.97 5.25 25.25 6.6 25.25 11.04V22.3C25.25 24.51 24.34 25.2 23.8 25.42C23.27 25.63 22.17 25.75 20.72 24.21C20.48 23.95 20.19 23.81 19.87 23.84C19.57 23.86 19.28 24.02 19.07 24.3L18.06 25.65C17.54 26.35 16.78 26.75 16 26.75ZM12.08 22.33C12.12 22.33 12.17 22.33 12.21 22.33C12.95 22.37 13.65 22.76 14.12 23.39L15.13 24.74C15.62 25.39 16.37 25.39 16.86 24.74L17.87 23.39C18.35 22.76 19.04 22.37 19.79 22.33C20.53 22.29 21.27 22.6 21.81 23.18C22.57 23.99 23.07 24.09 23.24 24.02C23.48 23.92 23.74 23.34 23.74 22.3V11.04C23.74 7.43 23.11 6.75 19.77 6.75H12.22C8.88 6.75 8.25 7.43 8.25 11.04V22.3C8.25 23.35 8.51 23.93 8.75 24.02C8.92 24.09 9.42 23.99 10.18 23.18C10.72 22.63 11.39 22.33 12.08 22.33Z" fill="#287A6E"/>
<path d="M20 11.75H12C11.59 11.75 11.25 11.41 11.25 11C11.25 10.59 11.59 10.25 12 10.25H20C20.41 10.25 20.75 10.59 20.75 11C20.75 11.41 20.41 11.75 20 11.75Z" fill="#287A6E"/>
<path d="M19 15.75H13C12.59 15.75 12.25 15.41 12.25 15C12.25 14.59 12.59 14.25 13 14.25H19C19.41 14.25 19.75 14.59 19.75 15C19.75 15.41 19.41 15.75 19 15.75Z" fill="#287A6E"/>
</g>
<defs>
<clipPath id="clip0_1416_35963">
<rect width="32" height="32" fill="white"/>
</clipPath>
</defs>
</svg>
