<svg width="24" height="25" viewBox="0 0 24 25" fill="none" xmlns="http://www.w3.org/2000/svg">
<path d="M10.47 8.96934C10.6106 8.82889 10.8012 8.75 11 8.75C11.1988 8.75 11.3894 8.82889 11.53 8.96934L14.53 11.9693C14.6705 12.11 14.7493 12.3006 14.7493 12.4993C14.7493 12.6981 14.6705 12.8887 14.53 13.0293L11.53 16.0293C11.4613 16.103 11.3785 16.1621 11.2865 16.2031C11.1945 16.2441 11.0952 16.2662 10.9945 16.2679C10.8938 16.2697 10.7938 16.2512 10.7004 16.2135C10.607 16.1757 10.5222 16.1196 10.451 16.0484C10.3797 15.9772 10.3236 15.8923 10.2859 15.7989C10.2482 15.7056 10.2296 15.6055 10.2314 15.5048C10.2332 15.4041 10.2552 15.3048 10.2962 15.2128C10.3372 15.1208 10.3963 15.038 10.47 14.9693L12.19 13.2493H4C3.80109 13.2493 3.61032 13.1703 3.46967 13.0297C3.32902 12.889 3.25 12.6983 3.25 12.4993C3.25 12.3004 3.32902 12.1097 3.46967 11.969C3.61032 11.8284 3.80109 11.7493 4 11.7493H12.19L10.47 10.0293C10.3295 9.88871 10.2507 9.69809 10.2507 9.49934C10.2507 9.30059 10.3295 9.10997 10.47 8.96934Z" fill="white"/>
<path d="M11.768 3.75H14.232C15.045 3.75 15.701 3.75 16.232 3.793C16.778 3.838 17.258 3.933 17.702 4.159C18.4081 4.51837 18.9822 5.09214 19.342 5.798C19.568 6.242 19.662 6.722 19.707 7.268C19.75 7.799 19.75 8.455 19.75 9.268V15.732C19.75 16.545 19.75 17.201 19.707 17.732C19.662 18.278 19.567 18.758 19.341 19.202C18.9816 19.9081 18.4079 20.4822 17.702 20.842C17.258 21.068 16.778 21.162 16.232 21.207C15.701 21.25 15.045 21.25 14.232 21.25H11.768C10.955 21.25 10.299 21.25 9.768 21.207C9.222 21.162 8.742 21.067 8.298 20.841C7.59192 20.4816 7.0178 19.9079 6.658 19.202C6.432 18.758 6.338 18.278 6.293 17.732C6.25 17.201 6.25 16.545 6.25 15.732V15.5C6.25 15.3011 6.32902 15.1103 6.46967 14.9697C6.61032 14.829 6.80109 14.75 7 14.75C7.19891 14.75 7.38968 14.829 7.53033 14.9697C7.67098 15.1103 7.75 15.3011 7.75 15.5V15.7C7.75 16.552 7.75 17.147 7.788 17.61C7.825 18.063 7.895 18.324 7.995 18.522C8.211 18.945 8.555 19.289 8.979 19.505C9.176 19.605 9.437 19.675 9.891 19.712C10.353 19.749 10.947 19.75 11.8 19.75H14.2C15.053 19.75 15.647 19.75 16.11 19.712C16.563 19.674 16.824 19.605 17.022 19.505C17.4452 19.2893 17.7893 18.9452 18.005 18.522C18.105 18.324 18.175 18.063 18.212 17.609C18.249 17.147 18.25 16.552 18.25 15.7V9.3C18.25 8.448 18.25 7.853 18.212 7.39C18.174 6.937 18.105 6.676 18.005 6.479C17.7895 6.05541 17.4454 5.71095 17.022 5.495C16.824 5.395 16.563 5.325 16.109 5.288C15.647 5.251 15.052 5.25 14.2 5.25H11.8C10.947 5.25 10.353 5.25 9.89 5.288C9.437 5.325 9.176 5.395 8.979 5.495C8.55526 5.71078 8.21078 6.05526 7.995 6.479C7.895 6.676 7.825 6.937 7.788 7.391C7.751 7.853 7.75 8.448 7.75 9.3V9.5C7.75 9.69891 7.67098 9.88968 7.53033 10.0303C7.38968 10.171 7.19891 10.25 7 10.25C6.80109 10.25 6.61032 10.171 6.46967 10.0303C6.32902 9.88968 6.25 9.69891 6.25 9.5V9.268C6.25 8.455 6.25 7.799 6.293 7.268C6.338 6.722 6.433 6.242 6.659 5.798C7.01837 5.09192 7.59214 4.5178 8.298 4.158C8.742 3.932 9.222 3.838 9.768 3.793C10.299 3.75 10.955 3.75 11.768 3.75Z" fill="white"/>
</svg>
