<svg width="48" height="48" viewBox="0 0 48 48" fill="none" xmlns="http://www.w3.org/2000/svg">
<circle cx="24" cy="24" r="24" fill="#D6E5E2"/>
<path d="M24.8548 31.1989C24.2582 31.1894 23.6616 31.0758 23.065 30.858C22.4684 30.6402 21.9239 30.2732 21.4315 29.7571C20.939 29.2363 20.5437 28.5331 20.2454 27.6477C19.9471 26.7576 19.7979 25.6402 19.7979 24.2955C19.7979 23.0076 19.9187 21.8665 20.1602 20.8722C20.4016 19.8731 20.752 19.0327 21.2113 18.3509C21.6706 17.6643 22.2246 17.1435 22.8732 16.7884C23.5266 16.4332 24.2629 16.2557 25.082 16.2557C25.8964 16.2557 26.6209 16.419 27.2553 16.7457C27.8945 17.0677 28.4154 17.5175 28.8178 18.0952C29.2203 18.6728 29.4807 19.3381 29.5991 20.0909H27.8661C27.7051 19.4375 27.3926 18.8954 26.9286 18.4645C26.4646 18.0336 25.8491 17.8182 25.082 17.8182C23.9551 17.8182 23.0674 18.3082 22.4187 19.2884C21.7747 20.2685 21.4504 21.6439 21.4457 23.4148H21.5593C21.8245 23.0123 22.1393 22.669 22.5039 22.3849C22.8732 22.0961 23.2804 21.8736 23.7255 21.7173C24.1706 21.5611 24.6417 21.483 25.1388 21.483C25.9722 21.483 26.7345 21.6913 27.4258 22.108C28.1171 22.5199 28.671 23.0904 29.0877 23.8196C29.5044 24.544 29.7127 25.375 29.7127 26.3125C29.7127 27.2121 29.5115 28.036 29.109 28.7841C28.7066 29.5275 28.1407 30.1193 27.4116 30.5597C26.6871 30.9953 25.8349 31.2083 24.8548 31.1989ZM24.8548 29.6364C25.4513 29.6364 25.9864 29.4872 26.4599 29.1889C26.9381 28.8906 27.3145 28.4905 27.5891 27.9886C27.8685 27.4867 28.0082 26.928 28.0082 26.3125C28.0082 25.7112 27.8732 25.1643 27.6033 24.6719C27.3382 24.1747 26.9712 23.7794 26.5025 23.4858C26.0385 23.1922 25.5082 23.0455 24.9116 23.0455C24.4618 23.0455 24.0427 23.1354 23.6545 23.3153C23.2662 23.4905 22.9253 23.732 22.6317 24.0398C22.3429 24.3475 22.1156 24.7003 21.9499 25.098C21.7842 25.491 21.7013 25.9053 21.7013 26.3409C21.7013 26.9186 21.8363 27.4583 22.1062 27.9602C22.3808 28.4621 22.7549 28.867 23.2283 29.1747C23.7066 29.4825 24.2487 29.6364 24.8548 29.6364Z" fill="#287A6E"/>
</svg>
