<svg width="24" height="24" viewBox="0 0 24 24" fill="none" xmlns="http://www.w3.org/2000/svg">
<path d="M6.077 17L4.373 18.704C4.12033 18.9567 3.82833 19.0147 3.497 18.878C3.16567 18.7413 3 18.493 3 18.133V4.616C3 4.15533 3.15433 3.771 3.463 3.463C3.77167 3.155 4.156 3.00067 4.616 3H19.385C19.845 3 20.2293 3.15433 20.538 3.463C20.8467 3.77167 21.0007 4.156 21 4.616V15.385C21 15.845 20.846 16.2293 20.538 16.538C20.23 16.8467 19.8457 17.0007 19.385 17H6.077ZM5.65 16H19.385C19.5383 16 19.6793 15.936 19.808 15.808C19.9367 15.68 20.0007 15.539 20 15.385V4.615C20 4.46167 19.936 4.32067 19.808 4.192C19.68 4.06333 19.539 3.99933 19.385 4H4.615C4.46167 4 4.32067 4.064 4.192 4.192C4.06333 4.32 3.99933 4.461 4 4.615V17.645L5.65 16ZM8 10.77C8.20667 10.77 8.38667 10.6933 8.54 10.54C8.69333 10.3867 8.77 10.2067 8.77 10C8.77 9.79333 8.69333 9.61333 8.54 9.46C8.38667 9.30667 8.20667 9.23 8 9.23C7.79333 9.23 7.61333 9.30667 7.46 9.46C7.30667 9.61333 7.23 9.79333 7.23 10C7.23 10.2067 7.30667 10.3867 7.46 10.54C7.61333 10.6933 7.79333 10.77 8 10.77ZM12 10.77C12.2067 10.77 12.3867 10.6933 12.54 10.54C12.6933 10.3867 12.77 10.2067 12.77 10C12.77 9.79333 12.6933 9.61333 12.54 9.46C12.3867 9.30667 12.2067 9.23 12 9.23C11.7933 9.23 11.6133 9.30667 11.46 9.46C11.3067 9.61333 11.23 9.79333 11.23 10C11.23 10.2067 11.3067 10.3867 11.46 10.54C11.6133 10.6933 11.7933 10.77 12 10.77ZM16 10.77C16.2067 10.77 16.3867 10.6933 16.54 10.54C16.6933 10.3867 16.77 10.2067 16.77 10C16.77 9.79333 16.6933 9.61333 16.54 9.46C16.3867 9.30667 16.2067 9.23 16 9.23C15.7933 9.23 15.6133 9.30667 15.46 9.46C15.3067 9.61333 15.23 9.79333 15.23 10C15.23 10.2067 15.3067 10.3867 15.46 10.54C15.6133 10.6933 15.7933 10.77 16 10.77Z" fill="black"/>
</svg>
