<svg width="48" height="48" viewBox="0 0 48 48" fill="none" xmlns="http://www.w3.org/2000/svg">
<circle cx="24" cy="24" r="24" fill="#D6E5E2"/>
<path d="M24.6861 31.1989C23.7486 31.1989 22.9129 31.0379 22.179 30.7159C21.4498 30.3939 20.8698 29.9465 20.4389 29.3736C20.0128 28.7959 19.7808 28.1259 19.7429 27.3636H21.5327C21.5705 27.8324 21.7315 28.2372 22.0156 28.5781C22.2997 28.9143 22.6714 29.1747 23.1307 29.3594C23.59 29.544 24.099 29.6364 24.6577 29.6364C25.2827 29.6364 25.8366 29.5275 26.3196 29.3097C26.8026 29.0919 27.1813 28.7888 27.456 28.4006C27.7306 28.0123 27.8679 27.5625 27.8679 27.0511C27.8679 26.5161 27.7353 26.045 27.4702 25.6378C27.205 25.2259 26.8168 24.9039 26.3054 24.6719C25.794 24.4399 25.169 24.3239 24.4304 24.3239H23.2656V22.7614H24.4304C25.008 22.7614 25.5147 22.6572 25.9503 22.4489C26.3906 22.2405 26.7339 21.947 26.9801 21.5682C27.2311 21.1894 27.3565 20.7443 27.3565 20.233C27.3565 19.7405 27.2476 19.312 27.0298 18.9474C26.812 18.5829 26.5043 18.2988 26.1065 18.0952C25.7135 17.8916 25.2495 17.7898 24.7145 17.7898C24.2126 17.7898 23.7391 17.8821 23.294 18.0668C22.8537 18.2467 22.4938 18.5095 22.2145 18.8551C21.9351 19.196 21.7836 19.608 21.7599 20.0909H20.0554C20.0838 19.3286 20.3134 18.661 20.7443 18.0881C21.1752 17.5104 21.7386 17.0606 22.4347 16.7386C23.1354 16.4167 23.9048 16.2557 24.7429 16.2557C25.6425 16.2557 26.4143 16.438 27.0582 16.8026C27.7022 17.1624 28.197 17.6383 28.5426 18.2301C28.8883 18.822 29.0611 19.4612 29.0611 20.1477C29.0611 20.9669 28.8456 21.6652 28.4148 22.2429C27.9886 22.8205 27.4086 23.2206 26.6747 23.4432V23.5568C27.5933 23.7083 28.3106 24.099 28.8267 24.7287C29.3428 25.3537 29.6009 26.1278 29.6009 27.0511C29.6009 27.8419 29.3854 28.5521 28.9545 29.1818C28.5284 29.8068 27.946 30.2992 27.2074 30.6591C26.4688 31.0189 25.6283 31.1989 24.6861 31.1989Z" fill="#287A6E"/>
</svg>
