<svg width="41" height="40" viewBox="0 0 41 40" fill="none" xmlns="http://www.w3.org/2000/svg">
<rect x="0.5" width="40" height="40" rx="8" fill="#22B364" fill-opacity="0.12"/>
<path opacity="0.4" d="M20.5 30C26.0228 30 30.5 25.5228 30.5 20C30.5 14.4772 26.0228 10 20.5 10C14.9772 10 10.5 14.4772 10.5 20C10.5 25.5228 14.9772 30 20.5 30Z" fill="#22B364"/>
<path d="M19.0795 23.5796C18.8795 23.5796 18.6895 23.4996 18.5495 23.3596L15.7195 20.5296C15.4295 20.2396 15.4295 19.7596 15.7195 19.4696C16.0095 19.1796 16.4895 19.1796 16.7795 19.4696L19.0795 21.7696L24.2195 16.6296C24.5095 16.3396 24.9895 16.3396 25.2795 16.6296C25.5695 16.9196 25.5695 17.3996 25.2795 17.6896L19.6095 23.3596C19.4695 23.4996 19.2795 23.5796 19.0795 23.5796Z" fill="#22B364"/>
</svg>
