<svg width="49" height="48" viewBox="0 0 49 48" fill="none" xmlns="http://www.w3.org/2000/svg">
<g clip-path="url(#clip0_1503_15997)">
<path opacity="0.4" d="M24.5 44C35.5457 44 44.5 35.0457 44.5 24C44.5 12.9543 35.5457 4 24.5 4C13.4543 4 4.5 12.9543 4.5 24C4.5 35.0457 13.4543 44 24.5 44Z" fill="#22B364"/>
<path d="M21.6609 31.16C21.2609 31.16 20.8809 30.9999 20.6009 30.7199L14.9409 25.0599C14.3609 24.48 14.3609 23.52 14.9409 22.94C15.5209 22.36 16.4809 22.36 17.0609 22.94L21.6609 27.54L31.9409 17.26C32.5209 16.68 33.4809 16.68 34.0609 17.26C34.6409 17.84 34.6409 18.8 34.0609 19.3799L22.7209 30.7199C22.4409 30.9999 22.0609 31.16 21.6609 31.16Z" fill="#22B364"/>
</g>
<defs>
<clipPath id="clip0_1503_15997">
<rect width="48" height="48" fill="white" transform="translate(0.5)"/>
</clipPath>
</defs>
</svg>
