<svg width="48" height="48" viewBox="0 0 48 48" fill="none" xmlns="http://www.w3.org/2000/svg">
<circle cx="24" cy="24" r="24" fill="#D6E5E2"/>
<path d="M18.3963 31V29.7216L23.1974 24.4659C23.7609 23.8504 24.2249 23.3153 24.5895 22.8608C24.9541 22.4015 25.224 21.9706 25.3991 21.5682C25.5791 21.161 25.669 20.7348 25.669 20.2898C25.669 19.7784 25.5459 19.3357 25.2997 18.9616C25.0582 18.5876 24.7268 18.2988 24.3054 18.0952C23.884 17.8916 23.4105 17.7898 22.8849 17.7898C22.3262 17.7898 21.8385 17.9058 21.4219 18.1378C21.0099 18.3651 20.6903 18.6847 20.4631 19.0966C20.2405 19.5085 20.1293 19.9915 20.1293 20.5455H18.4531C18.4531 19.6932 18.6496 18.9451 19.0426 18.3011C19.4356 17.6572 19.9706 17.1553 20.6477 16.7955C21.3295 16.4356 22.0942 16.2557 22.9418 16.2557C23.794 16.2557 24.5492 16.4356 25.2074 16.7955C25.8655 17.1553 26.3816 17.6406 26.7557 18.2514C27.1297 18.8622 27.3168 19.5417 27.3168 20.2898C27.3168 20.8248 27.2197 21.348 27.0256 21.8594C26.8362 22.366 26.5047 22.9318 26.0312 23.5568C25.5625 24.1771 24.9115 24.9347 24.0781 25.8295L20.8111 29.3239V29.4375H27.5724V31H18.3963Z" fill="#287A6E"/>
</svg>
