<svg width="32" height="32" viewBox="0 0 32 32" fill="none" xmlns="http://www.w3.org/2000/svg">
<rect width="32" height="32" rx="16" fill="#232730" fill-opacity="0.15"/>
<path d="M16.1541 15C16.1252 15 16.106 15 16.0771 15C16.0289 14.9904 15.9615 14.9904 15.9037 15C13.1098 14.9132 11 12.7146 11 10.0048C11 7.24687 13.2447 5 16 5C18.7553 5 21 7.24687 21 10.0048C20.9904 12.7146 18.8709 14.9132 16.183 15C16.1734 15 16.1638 15 16.1541 15ZM16 6.44648C14.0443 6.44648 12.4451 8.04725 12.4451 10.0048C12.4451 11.9335 13.948 13.486 15.8651 13.5535C15.9133 13.5439 16.0482 13.5439 16.1734 13.5535C18.0617 13.4667 19.5453 11.9142 19.5549 10.0048C19.5549 8.04725 17.9557 6.44648 16 6.44648Z" fill="#232730" fill-opacity="0.38"/>
<path d="M16 26C14.1876 26 12.3659 25.5056 10.9881 24.5167C9.70277 23.6069 9 22.3609 9 21.0062C9 19.6514 9.70277 18.3956 10.9881 17.4759C13.7622 15.508 18.2563 15.508 21.0119 17.4759C22.288 18.3857 23 19.6316 23 20.9864C23 22.3412 22.2972 23.597 21.0119 24.5167C19.6248 25.5056 17.8124 26 16 26ZM11.7556 18.7219C10.8679 19.3548 10.3871 20.1656 10.3871 21.0161C10.3871 21.8566 10.8771 22.6675 11.7556 23.2905C14.0581 24.9419 17.9419 24.9419 20.2444 23.2905C21.1321 22.6576 21.6129 21.8467 21.6129 20.9963C21.6129 20.1557 21.1229 19.3449 20.2444 18.7219C17.9419 17.0803 14.0581 17.0803 11.7556 18.7219Z" fill="#232730" fill-opacity="0.38"/>
</svg>
