<svg width="30" height="30" viewBox="0 0 30 30" fill="none" xmlns="http://www.w3.org/2000/svg">
<path d="M12.5372 4.57332C13.6072 2.63832 16.3885 2.63832 17.4585 4.57332L27.141 22.0746C28.1785 23.9496 26.8222 26.2496 24.6797 26.2496H5.31722C3.17347 26.2496 1.81722 23.9496 2.85472 22.0746L12.5372 4.57332Z" fill="url(#paint0_linear_1416_30417)"/>
<path d="M16.2459 21.2497C16.2512 21.0825 16.2228 20.9159 16.1625 20.7598C16.1021 20.6038 16.0111 20.4615 15.8946 20.3413C15.7782 20.2211 15.6388 20.1256 15.4848 20.0603C15.3307 19.9951 15.1651 19.9615 14.9978 19.9615C14.8305 19.9615 14.6649 19.9951 14.5108 20.0603C14.3567 20.1256 14.2173 20.2211 14.1009 20.3413C13.9845 20.4615 13.8934 20.6038 13.8331 20.7598C13.7727 20.9159 13.7444 21.0825 13.7496 21.2497C13.7599 21.5739 13.8959 21.8814 14.1289 22.1071C14.3618 22.3328 14.6734 22.459 14.9978 22.459C15.3221 22.459 15.6337 22.3328 15.8667 22.1071C16.0996 21.8814 16.2356 21.5739 16.2459 21.2497ZM15.9221 11.4347C15.8898 11.1993 15.7692 10.985 15.5848 10.8351C15.4004 10.6852 15.1659 10.6109 14.9289 10.6272C14.6918 10.6436 14.4698 10.7494 14.3077 10.9232C14.1457 11.097 14.0557 11.3258 14.0559 11.5635L14.0609 17.1897L14.0696 17.3172C14.102 17.5526 14.2226 17.767 14.407 17.9169C14.5914 18.0668 14.8258 18.1411 15.0629 18.1247C15.3 18.1084 15.522 18.0026 15.6841 17.8288C15.8461 17.655 15.9361 17.4261 15.9359 17.1885L15.9309 11.561L15.9221 11.4347Z" fill="url(#paint1_linear_1416_30417)"/>
<defs>
<linearGradient id="paint0_linear_1416_30417" x1="6.40597" y1="-0.49168" x2="20.8985" y2="29.3458" gradientUnits="userSpaceOnUse">
<stop stop-color="#FFCD0F"/>
<stop offset="1" stop-color="#FED801"/>
</linearGradient>
<linearGradient id="paint1_linear_1416_30417" x1="11.6696" y1="10.6247" x2="17.1896" y2="23.006" gradientUnits="userSpaceOnUse">
<stop stop-color="#4A4A4A"/>
<stop offset="1" stop-color="#212121"/>
</linearGradient>
</defs>
</svg>
