<svg width="26" height="24" viewBox="0 0 26 24" fill="none" xmlns="http://www.w3.org/2000/svg">
<path d="M10.5372 2.07332C11.6072 0.13832 14.3885 0.13832 15.4585 2.07332L25.141 19.5746C26.1785 21.4496 24.8222 23.7496 22.6797 23.7496H3.31722C1.17347 23.7496 -0.182777 21.4496 0.854723 19.5746L10.5372 2.07332Z" fill="url(#paint0_linear_1437_13908)"/>
<path d="M14.2459 18.7497C14.2512 18.5825 14.2228 18.4159 14.1625 18.2598C14.1021 18.1038 14.0111 17.9615 13.8946 17.8413C13.7782 17.7211 13.6388 17.6256 13.4848 17.5603C13.3307 17.4951 13.1651 17.4615 12.9978 17.4615C12.8305 17.4615 12.6649 17.4951 12.5108 17.5603C12.3567 17.6256 12.2173 17.7211 12.1009 17.8413C11.9845 17.9615 11.8934 18.1038 11.8331 18.2598C11.7727 18.4159 11.7444 18.5825 11.7496 18.7497C11.7599 19.0739 11.8959 19.3814 12.1289 19.6071C12.3618 19.8328 12.6734 19.959 12.9978 19.959C13.3221 19.959 13.6337 19.8328 13.8667 19.6071C14.0996 19.3814 14.2356 19.0739 14.2459 18.7497ZM13.9221 8.93472C13.8898 8.6993 13.7692 8.48496 13.5848 8.33506C13.4004 8.18515 13.1659 8.11087 12.9289 8.12722C12.6918 8.14358 12.4698 8.24936 12.3077 8.42316C12.1457 8.59697 12.0557 8.82583 12.0559 9.06347L12.0609 14.6897L12.0696 14.8172C12.102 15.0526 12.2226 15.267 12.407 15.4169C12.5914 15.5668 12.8258 15.6411 13.0629 15.6247C13.3 15.6084 13.522 15.5026 13.6841 15.3288C13.8461 15.155 13.9361 14.9261 13.9359 14.6885L13.9309 9.06097L13.9221 8.93472Z" fill="url(#paint1_linear_1437_13908)"/>
<defs>
<linearGradient id="paint0_linear_1437_13908" x1="4.40597" y1="-2.99168" x2="18.8985" y2="26.8458" gradientUnits="userSpaceOnUse">
<stop stop-color="#FFCD0F"/>
<stop offset="1" stop-color="#FED801"/>
</linearGradient>
<linearGradient id="paint1_linear_1437_13908" x1="9.66965" y1="8.12472" x2="15.1896" y2="20.506" gradientUnits="userSpaceOnUse">
<stop stop-color="#4A4A4A"/>
<stop offset="1" stop-color="#212121"/>
</linearGradient>
</defs>
</svg>
