<svg width="94" height="91" viewBox="0 0 94 91" fill="none" xmlns="http://www.w3.org/2000/svg">
<path d="M25.9752 22.5176C26.5347 22.0299 27.0756 21.5187 27.6569 21.0577C30.1017 19.121 32.806 17.6282 35.7079 16.5078C39.0294 15.2254 42.4828 14.5525 46.0464 14.4807C49.9766 14.4015 53.7894 15.0463 57.4799 16.4089C60.6783 17.5898 63.6021 19.2607 66.2575 21.402C66.4367 21.5466 66.6784 21.6503 66.6112 21.9819C66.5839 22.1176 66.7084 22.2849 66.7747 22.4695C66.9316 22.3801 67.0614 22.3064 67.2363 22.2067C67.8999 22.8451 68.5699 23.4883 69.2755 24.1673C68.8843 24.3583 68.5615 24.5366 68.2212 24.6678C68.1332 24.702 67.9621 24.6211 67.8751 24.5419C67.0084 23.7524 66.1872 22.9081 65.2809 22.1689C64.5038 21.5351 63.6468 20.9943 62.8 20.4518C58.8007 17.8882 54.4331 16.3699 49.714 15.8822C46.008 15.4999 42.3597 15.8174 38.7696 16.816C36.799 17.3641 34.9262 18.145 33.0897 19.0393C31.8687 19.6338 30.7393 20.3704 29.6459 21.153C28.5508 21.9372 27.49 22.7849 26.506 23.704C25.5146 24.6307 24.6014 25.6495 23.7159 26.6811C22.5251 28.0698 21.5501 29.6131 20.6616 31.2135C20.0713 32.2766 19.5725 33.3807 19.1395 34.5124C18.994 34.8934 18.8247 35.1183 18.3989 35.0743C18.332 35.0672 18.2613 35.093 18.1745 35.1067C18.087 35.4586 18.3577 35.6769 18.4634 35.9487C18.4933 36.0263 18.5359 36.1215 18.5149 36.1922C18.3282 36.8412 18.1285 37.4862 17.9221 38.1695C17.6054 38.0468 17.4295 38.2582 17.3904 38.5062C17.3715 38.6235 17.5936 38.7797 17.7492 38.9699C17.3281 40.8865 17.033 42.9179 17.05 44.9782C17.061 46.292 17.1658 47.6061 17.2374 48.9189C17.2492 49.1333 17.1525 49.2616 17.0595 49.4413C16.8529 49.8417 16.4482 49.8327 16.1262 50.1282C16.0515 49.5138 15.9705 48.9581 15.9189 48.3992C15.53 44.1723 15.9781 40.0373 17.2695 35.996C18.2002 33.0821 19.5366 30.369 21.2637 27.8489C21.3557 27.7142 21.4612 27.5777 21.5898 27.4807C21.8427 27.2905 22.1632 27.161 22.0711 26.7435C22.0622 26.7041 22.1303 26.6454 22.1661 26.5986C23.2658 25.1692 24.4786 23.8436 25.8044 22.6209C25.8558 22.5736 25.9212 22.5401 25.9795 22.5005C25.9767 22.5336 25.97 22.5671 25.972 22.6003C25.9774 22.7137 25.9856 22.8265 25.9926 22.9399C26.1002 22.9183 26.243 22.9313 26.3076 22.8672C26.4008 22.7739 26.4369 22.6236 26.4976 22.4979C26.4051 22.4595 26.3117 22.3915 26.2202 22.3925C26.137 22.3942 26.0556 22.4728 25.973 22.5163L25.9752 22.5176ZM23.5916 26.3841C23.7385 26.0549 23.8902 25.7274 24.0187 25.3913C24.0265 25.3716 23.8391 25.2215 23.7545 25.2318C23.5165 25.2606 23.0965 25.8296 23.0944 26.077C23.0923 26.3649 23.2485 26.4674 23.5916 26.3841ZM28.0211 21.5227C28.4718 21.5999 28.8231 21.457 28.9421 21.108C28.9856 20.9811 28.9491 20.7716 28.8646 20.6731C28.8071 20.6073 28.5809 20.628 28.4654 20.6836C28.1363 20.8427 28.0256 21.147 28.0211 21.5227ZM16.2879 47.9322C16.6828 47.9047 16.8983 47.716 16.8156 47.4345C16.7831 47.3225 16.5969 47.1861 16.4773 47.1833C16.2817 47.1787 16.1884 47.5691 16.2879 47.9322ZM34.561 17.9832C34.6039 17.8097 34.6581 17.695 34.6454 17.5876C34.6406 17.5486 34.4353 17.4772 34.3916 17.5112C34.3053 17.578 34.2682 17.7082 34.2108 17.8117C34.3058 17.8583 34.4007 17.9049 34.561 17.9832Z" fill="#FF6060"/>
<path d="M51.0652 76.2445C51.1631 76.0505 51.2475 75.9195 51.2959 75.7751C51.3302 75.6733 51.3147 75.5553 51.3217 75.4446C51.1869 75.4381 51.0146 75.376 50.9252 75.4363C50.7562 75.5514 50.597 75.7174 50.5011 75.8977C50.3037 76.2682 50.0281 76.4004 49.608 76.4363C45.5559 76.7824 41.586 76.3628 37.6992 75.1668C35.4228 74.4664 33.2515 73.5184 31.1959 72.3088C31.1559 72.2854 31.1192 72.2556 31.1024 72.244C31.3291 71.9044 31.5516 71.5725 31.7592 71.2605C32.8411 71.7845 33.9613 72.3819 35.1237 72.8792C40.3443 75.1119 45.7672 75.794 51.3773 74.9494C51.7399 74.8947 52.0989 74.8116 52.4618 74.7608C52.6791 74.7302 52.8985 74.5754 53.0982 74.8951C53.201 75.0603 53.4252 74.9023 53.5472 74.722C53.6199 74.6142 53.7366 74.4944 53.8551 74.4643C56.1064 73.8984 58.267 73.0962 60.3394 72.0502C60.464 71.987 60.6395 72.0038 60.7889 72.0143C61.0425 72.032 61.229 71.9886 61.2565 71.6859C61.2625 71.6218 61.3145 71.54 61.3696 71.5051C61.9514 71.1392 62.5381 70.7804 63.1249 70.4232C63.1829 70.3877 63.2613 70.3471 63.3202 70.3588C63.5608 70.4083 63.6272 70.2797 63.7328 70.0883C63.8335 69.9064 64.0526 69.7835 64.2326 69.6535C67.129 67.5702 69.5592 65.0367 71.5312 62.0634C74.2778 57.9219 75.8802 53.368 76.385 48.4234C76.4438 47.8455 76.4721 47.2651 76.5166 46.6561C76.8113 46.6735 76.9944 46.5094 76.9471 46.2226C76.9262 46.0969 76.7256 46.001 76.5937 45.8802C76.4893 44.5214 76.3763 43.0929 76.2774 41.6639C76.2718 41.5776 76.3564 41.4457 76.4359 41.4006C76.7344 41.2325 77.0483 41.0928 77.428 40.9074C77.5099 41.5771 77.5861 42.201 77.6654 42.8489C77.4658 42.8804 77.2967 42.9074 77.094 42.9388C77.1417 43.3176 77.2564 43.6208 77.5724 43.8392C77.6563 43.8976 77.7285 44.034 77.7336 44.1388C77.8773 47.1098 77.5882 50.0404 76.8808 52.9263C75.9469 56.7367 74.3527 60.2487 72.0953 63.4544C70.2319 66.0998 68.0337 68.4294 65.4069 70.3199C64.0921 71.2662 62.6825 72.08 61.3142 72.9507C61.2052 73.0198 61.0821 73.0664 60.9687 73.1217C60.6014 72.7249 60.5311 72.7497 60.2468 73.2199C60.1272 73.4182 59.9459 73.6267 59.742 73.7191C57.0317 74.9542 54.2069 75.8152 51.253 76.2331C51.21 76.239 51.166 76.2382 51.0633 76.2439L51.0652 76.2445ZM75.2495 55.7612C75.6697 55.7157 75.8628 55.5428 75.7729 55.2498C75.7381 55.1364 75.5493 55.0029 75.4269 54.9991C75.2405 54.9939 75.1463 55.4166 75.2495 55.7612ZM76.151 51.3889C76.1125 51.6771 76.0686 51.8503 76.0796 52.0206C76.083 52.0682 76.3226 52.1499 76.3281 52.1416C76.4288 51.9693 76.5189 51.7886 76.5834 51.6006C76.5883 51.5863 76.3796 51.4998 76.1513 51.3896L76.151 51.3889ZM48.8808 75.5604C48.6298 75.6813 48.4224 75.8136 48.4906 76.1156C48.4964 76.1422 48.7496 76.164 48.8432 76.1104C49.0694 75.9793 49.1593 75.7915 48.8808 75.5604ZM67.3434 67.5951L67.4486 67.744C67.6069 67.6866 67.7658 67.6289 67.9241 67.5715L67.7383 67.082C67.6969 67.08 67.6551 67.0789 67.6137 67.0769C67.5236 67.2497 67.4332 67.4217 67.3431 67.5945L67.3434 67.5951Z" fill="#FF6060"/>
<path d="M34.17 63.4275L33.6271 62.3154C33.7466 62.2499 33.854 62.184 33.9666 62.129C45.2289 56.6295 56.4927 51.1316 67.7511 45.6244C68.0732 45.4672 68.1899 45.5374 68.326 45.8389C68.6613 46.5827 68.6766 46.58 67.9435 46.9379C58.5588 51.5199 49.1741 56.1003 39.7891 60.6817C38.0528 61.5294 36.3171 62.3785 34.581 63.2268C34.4556 63.2881 34.3301 63.3494 34.17 63.4275ZM46.0006 57.6013C46.2722 57.0371 46.2367 56.8701 45.8032 56.5994C45.4372 57.0125 45.5042 57.3867 46.0006 57.6013ZM39.6353 60.4461C39.7953 60.2281 40.0758 60.0736 39.8702 59.779C39.8331 59.7257 39.5331 59.7609 39.4648 59.8451C39.296 60.0531 39.3422 60.2745 39.6353 60.4461ZM42.5274 58.651C42.5673 58.645 42.6069 58.6384 42.6467 58.6324C42.6445 58.5223 42.6848 58.3564 42.6297 58.3149C42.5467 58.2521 42.3986 58.2752 42.2782 58.2624C42.2671 58.2965 42.256 58.3305 42.2458 58.3649C42.34 58.4604 42.4332 58.5555 42.5274 58.651Z" fill="#FF6060"/>
<path d="M59.9529 28.7025L25.461 45.5429L24.9335 44.4622C25.0436 44.4021 25.1606 44.3315 25.2829 44.2718C33.4774 40.2725 41.6731 36.2741 49.8673 32.2742C52.9251 30.7813 55.9841 29.2893 59.0354 27.7828C59.3485 27.6284 59.4956 27.6749 59.6121 27.9932C59.6965 28.2245 59.8247 28.4401 59.9529 28.7025ZM50.052 32.8801C50.1297 32.6737 50.1799 32.538 50.2312 32.4025C50.1281 32.3765 49.9793 32.2958 49.9302 32.3365C49.8188 32.4282 49.7556 32.5798 49.6732 32.7067C49.7745 32.7534 49.8758 32.8001 50.0517 32.8811L50.052 32.8801Z" fill="#FF6060"/>
<path d="M72.9566 50.6172L73.1866 51.0883C73.2744 51.0668 73.3616 51.0457 73.4661 51.0209C73.4676 51.0679 73.4777 51.1146 73.4687 51.1563C73.0873 52.9979 72.515 54.7784 71.7623 56.4993C70.9984 58.2447 70.0725 59.8999 68.9591 61.4472C68.779 61.6972 68.5977 61.9463 68.4047 62.1859C68.2456 62.3828 68.148 62.6395 67.7871 62.6083C67.6597 62.5974 67.438 62.8383 67.3789 63.0063C66.9121 64.3483 65.7679 65.1064 64.8135 66.0246C64.547 66.281 64.2022 66.4533 63.9111 66.6869C63.4919 67.0235 63.1095 67.4096 62.6749 67.7243C61.0274 68.9181 59.2665 69.9169 57.381 70.6849C56.6091 70.999 55.8293 71.3003 55.0347 71.5516C54.2109 71.8115 53.3728 72.0355 52.5288 72.2164C51.6965 72.3955 50.8515 72.5307 50.0059 72.6304C49.1606 72.7308 48.3079 72.8015 47.4563 72.8191C43.9335 72.8933 40.5173 72.3155 37.2147 71.0687C35.2193 70.3153 33.3308 69.3539 31.5694 68.1477C31.4062 68.0359 31.2634 67.8553 31.1811 67.6754C31.0875 67.4707 30.9676 67.3989 30.7549 67.3724C30.5693 67.3494 30.3574 67.2971 30.2172 67.1836C29.4185 66.5365 28.6375 65.8673 27.8428 65.1991C28.312 64.7928 28.3742 64.7951 28.7559 65.1403C33.5209 69.4494 39.106 71.8053 45.5104 72.156C50.3443 72.4207 54.9184 71.3946 59.1915 69.1398C64.1324 66.5327 67.8923 62.7246 70.4728 57.7559C70.6116 57.4879 70.8205 57.2532 70.9363 56.9773C71.2042 56.3371 71.4673 55.6921 71.6722 55.0302C72.0939 53.672 72.4764 52.302 72.8739 50.9366C72.8962 50.8589 72.9138 50.7796 72.9547 50.6166L72.9566 50.6172Z" fill="#FF6060"/>
<path d="M58.4068 63.8881C57.6292 63.8577 56.9433 63.8477 56.2609 63.7962C55.9086 63.7696 55.6685 63.8494 55.4647 64.1611C55.0832 64.7439 54.6573 65.2975 54.1972 65.937C54.1067 65.6411 54.0325 65.4159 53.97 65.1873C53.8257 64.661 53.6989 64.13 53.5389 63.6089C53.5061 63.501 53.3722 63.3844 53.2603 63.3468C52.5737 63.1194 51.8806 62.9143 51.1894 62.7002C51.1369 62.6837 51.0871 62.658 50.9753 62.6109C51.6222 62.1853 52.2117 61.7736 52.8263 61.4036C53.1076 61.2344 53.2043 61.041 53.194 60.7178C53.1705 60.0085 53.189 59.2978 53.1906 58.515C53.6723 58.8894 54.1103 59.2231 54.5406 59.5653C55.2817 60.1546 55.2786 60.153 56.1627 59.8398C56.6826 59.6558 57.2084 59.4873 57.8104 59.2848C57.5248 60.0234 57.2791 60.6878 57.0098 61.3429C56.8932 61.6271 56.871 61.8446 57.0989 62.1084C57.4773 62.5475 57.8005 63.0342 58.1449 63.5026C58.2205 63.6055 58.2891 63.7135 58.4071 63.8871L58.4068 63.8881ZM56.4599 61.5304C56.5398 61.3269 56.5939 61.1876 56.6486 61.048C56.5315 61.0257 56.3754 60.9462 56.3077 60.9944C56.2012 61.0686 56.1549 61.2287 56.083 61.3528C56.1869 61.4014 56.29 61.4504 56.4609 61.5307L56.4599 61.5304Z" fill="#FF6060"/>
<path d="M37.1263 25.6337C37.759 26.1178 38.3497 26.5597 38.9288 27.0168C39.1115 27.1605 39.2622 27.2141 39.5027 27.1253C40.2097 26.8651 40.9314 26.6446 41.7345 26.3797C41.4777 27.0605 41.2881 27.6824 41.0103 28.2615C40.8003 28.6986 40.8496 29.0059 41.1592 29.3673C41.5736 29.8507 41.9273 30.3869 42.3587 30.9702C41.7777 30.9511 41.2657 30.992 40.7771 30.904C39.977 30.7606 39.4368 30.9957 39.0534 31.7273C38.8253 32.1629 38.4778 32.536 38.1826 32.9368C38.1768 32.9444 38.1615 32.9455 38.1046 32.9685C37.9394 32.3784 37.7254 31.8003 37.6244 31.2036C37.5297 30.6458 37.2633 30.3793 36.7198 30.268C36.1877 30.1591 35.6736 29.9619 35.1526 29.8007C35.0909 29.7815 35.0344 29.7455 34.9217 29.6916C35.4745 29.3264 35.9651 28.9558 36.4987 28.6619C36.9743 28.4002 37.1918 28.089 37.132 27.5182C37.0687 26.9094 37.1216 26.2884 37.1247 25.6336L37.1263 25.6337ZM39.5103 28.8301C39.6806 28.669 39.8462 28.5127 39.9545 28.4098C40.1067 28.504 40.2457 28.6459 40.3097 28.6178C40.4358 28.5626 40.5571 28.4279 40.6124 28.2975C40.6573 28.1914 40.623 28.0365 40.5842 27.9164C40.5537 27.8216 40.459 27.6763 40.3984 27.6789C40.3063 27.6833 40.1549 27.7858 40.1425 27.8642C40.1043 28.1093 39.9482 28.1355 39.7543 28.1833C39.4007 28.2693 39.333 28.4637 39.5097 28.8304L39.5103 28.8301Z" fill="#FF6060"/>
<path d="M65.6846 25.8923C65.1596 26.217 65.1622 26.2141 64.7501 25.8392C64.4961 25.608 64.2379 25.3796 63.9733 25.1608C63.7255 24.9551 63.4318 24.7823 63.6475 24.2692C63.0795 24.5966 62.8256 24.2144 62.508 23.9991C61.7816 23.5067 61.0529 23.0177 60.3794 22.5637C60.3394 22.3695 60.3063 22.2093 60.2729 22.0483C60.1154 22.0879 59.9583 22.1281 59.7407 22.1826C58.9241 21.7978 58.0354 21.348 57.123 20.9551C54.2506 19.7176 51.2464 19.0109 48.1261 18.8814C46.7813 18.826 45.4304 18.9285 44.0823 18.9684C43.8511 18.9756 43.6262 19.0298 43.5896 18.6916C43.5843 18.6418 43.4756 18.6026 43.4145 18.5586C43.3763 18.6233 43.3181 18.6843 43.306 18.7538C43.2916 18.8315 43.3189 18.9167 43.3337 19.0494C42.9009 19.0382 42.4887 19.3388 42.1307 19.0876C41.8805 19.1907 41.687 19.2979 41.48 19.3513C40.4298 19.6232 39.3763 19.8817 38.3281 20.1432C38.3115 19.9709 38.2933 19.7779 38.2743 19.5798C47.5138 16.3537 58.6219 18.8707 65.6846 25.8923Z" fill="#FF6060"/>
<path d="M45.8 22.4158C46.3823 22.8697 46.891 23.2523 47.3823 23.6562C47.5595 23.8017 47.7129 23.8317 47.9271 23.7557C48.5462 23.5361 49.1727 23.3367 49.8645 23.107C49.6658 23.6355 49.5191 24.1339 49.2936 24.5929C49.0593 25.0712 49.0538 25.445 49.4481 25.8565C49.7966 26.2195 50.057 26.667 50.4071 27.1453C49.8028 27.1272 49.2617 27.149 48.7312 27.0838C48.2379 27.0235 47.9211 27.1623 47.6643 27.596C47.3951 28.0516 47.0492 28.4621 46.6876 28.9605C46.5758 28.5772 46.4296 28.2632 46.3996 27.9385C46.3121 26.9942 45.8448 26.4738 44.8871 26.3668C44.555 26.3295 44.236 26.1698 43.831 26.0401C44.4106 25.6602 44.9233 25.3121 45.4492 24.9862C45.7011 24.8298 45.8326 24.6623 45.8131 24.3365C45.7769 23.7343 45.8018 23.1293 45.8006 22.4155L45.8 22.4158ZM47.7045 26.3629C47.4509 26.6035 47.3658 26.9455 47.545 27.0463C47.6249 27.0915 47.8327 27.0592 47.8763 26.9926C48.0427 26.7389 47.9115 26.5352 47.7045 26.3629Z" fill="#FF6060"/>
<path d="M49.3331 64.131C49.0773 64.8106 48.87 65.4156 48.6183 66.0011C48.51 66.2518 48.5653 66.4171 48.7131 66.6096C49.0933 67.1074 49.4625 67.6137 49.8817 68.1783C49.316 68.1597 48.8089 68.1911 48.3186 68.1142C47.7262 68.0212 47.3516 68.2025 47.0583 68.7256C46.8129 69.1632 46.4717 69.5476 46.1417 69.9988C45.9671 69.3553 45.7985 68.7645 45.6519 68.1686C45.6282 68.0713 45.7281 67.9478 45.7188 67.8411C45.7039 67.6759 45.6441 67.5144 45.6034 67.3514C45.4803 67.3996 45.3584 67.452 45.2334 67.4948C45.1362 67.5279 45.0228 67.5912 44.9369 67.568C44.4135 67.4246 43.8959 67.2593 43.295 67.0775C43.7483 66.7751 44.1224 66.4677 44.5456 66.2579C45.126 65.9705 45.3625 65.5698 45.2782 64.918C45.2211 64.4762 45.2706 64.0205 45.2726 63.5714C45.2723 63.5611 45.2823 63.5507 45.3183 63.4783C45.7459 63.9108 46.3435 64.1022 46.6397 64.6943C46.6996 64.8137 47.1038 64.846 47.3147 64.7891C47.9748 64.6098 48.6186 64.3694 49.3337 64.1307L49.3331 64.131Z" fill="#FF6060"/>
<path d="M59.8955 58.9578C60.5281 58.5401 61.0868 58.1871 61.6246 57.8045C61.7443 57.7198 61.8424 57.5376 61.859 57.3896C61.8935 57.0851 61.8382 56.7704 61.872 56.4662C61.9059 56.1636 62.0044 55.8684 62.0897 55.5056C62.599 55.8991 63.0371 56.2574 63.499 56.5818C63.6175 56.6653 63.8273 56.702 63.966 56.6613C64.6001 56.4741 65.2242 56.252 65.9372 56.0136C65.6628 56.7364 65.4195 57.3829 65.1675 58.0264C65.1499 58.0716 65.0693 58.1078 65.0124 58.118C64.584 58.1969 64.5014 58.4208 64.7835 58.7924C64.9297 58.6599 65.0743 58.5273 65.2385 58.378C65.6503 58.9358 66.0439 59.4676 66.4812 60.0599C65.9264 60.0423 65.4196 60.076 64.9306 59.9985C64.3369 59.9045 63.9588 60.0915 63.662 60.6075C63.4164 61.035 63.088 61.4146 62.797 61.8158C62.7588 61.8154 62.7199 61.8153 62.6816 61.8149C62.6211 61.397 62.5638 60.9792 62.4973 60.5619C62.4843 60.4816 62.4432 60.4039 62.4037 60.3311C62.3613 60.2524 62.2704 60.1847 62.2621 60.1061C62.2233 59.7277 62.0056 59.5757 61.6509 59.4891C61.0895 59.3523 60.5425 59.1561 59.8959 58.9569L59.8955 58.9578Z" fill="#FF6060"/>
<path d="M20.5433 40.6482C20.4362 40.5018 20.3423 40.3729 20.2475 40.2435C20.2124 40.3958 20.1893 40.5516 20.138 40.6983C20.0969 40.8153 20.021 40.9199 19.8785 41.0046C19.94 40.6662 19.9955 40.3268 20.0644 39.9904C20.6078 37.345 21.5226 34.8354 22.8012 32.4588C22.9017 32.2715 23.0025 32.1452 23.2389 32.1227C23.5178 32.0963 23.7737 31.9904 23.8309 31.6088C23.7005 31.5708 23.5618 31.5304 23.3612 31.4718C26.7794 25.8414 31.5951 21.9628 37.7825 19.7492C37.6247 20.1211 37.5351 20.4947 37.0611 20.6768C33.1643 22.1693 29.8268 24.491 27.0233 27.5771C24.981 29.825 23.3829 32.3608 22.2035 35.1633C22.1371 35.3213 21.9913 35.4481 21.8719 35.5803C21.7174 35.7511 21.5583 35.9059 21.7378 36.1615C21.7762 36.2159 21.7475 36.3324 21.7238 36.4123C21.4342 37.4025 21.1912 38.4103 20.8237 39.371C20.6603 39.798 20.773 40.2547 20.5452 40.6489L20.5433 40.6482Z" fill="#FF6060"/>
<path d="M29.2058 30.534C29.7748 30.9786 30.2747 31.3416 30.7399 31.7455C30.9667 31.9423 31.1603 31.9344 31.4136 31.8425C32 31.6309 32.5939 31.441 33.2675 31.2147C32.9988 31.9228 32.7571 32.5582 32.5164 33.1922C31.9306 33.0269 31.7751 33.0932 31.5105 33.6587C31.376 33.9453 31.2765 34.2482 31.1595 34.5493C31.8328 34.6163 32.2235 34.3643 32.5762 33.6152C32.7505 33.8424 32.9091 34.0487 33.0434 34.2231C33.0025 34.3766 32.9722 34.4899 32.9419 34.6032C33.0375 34.6106 33.1341 34.6103 33.2277 34.6282C33.2881 34.64 33.3619 34.6628 33.3975 34.7066C33.5234 34.8621 33.6354 35.0283 33.8056 35.2631C33.2294 35.2457 32.712 35.2805 32.2131 35.2022C31.6385 35.1117 31.29 35.3136 31.004 35.795C30.7459 36.2293 30.4164 36.6214 30.0793 37.0856C29.8836 36.3841 29.7141 35.7366 29.514 35.0992C29.4737 34.9711 29.3343 34.8253 29.2082 34.7812C28.6488 34.5855 28.0773 34.425 27.5105 34.2496C27.4367 34.2268 27.3659 34.1939 27.2461 34.1466C27.811 33.7755 28.3241 33.4201 28.8564 33.0958C29.107 32.9433 29.2149 32.7745 29.2035 32.4702C29.1795 31.8461 29.2024 31.2207 29.2058 30.5356L29.2058 30.534Z" fill="#FF6060"/>
<path d="M31.0249 70.7622C30.815 71.1214 30.6144 71.4641 30.3992 71.8306C28.1905 70.4518 26.1654 68.8109 24.3037 66.8487C24.6847 66.6627 25.0247 66.4871 25.3744 66.3347C25.434 66.3088 25.5611 66.3564 25.6148 66.4112C27.2443 68.0831 29.074 69.5055 31.0293 70.7711C31.0385 70.777 31.0432 70.7898 31.0233 70.7621L31.0249 70.7622Z" fill="#FF6060"/>
<path d="M73.9496 42.6171C73.9845 43.7802 74.025 44.8555 74.0448 45.9306C74.0527 46.3805 74.0278 46.8313 73.9917 47.2804C73.9785 47.4466 73.886 47.6046 73.8393 47.7689C73.8114 47.866 73.7593 47.9867 73.7921 48.0653C73.9833 48.5219 73.8958 48.9015 73.6068 49.3001C73.3671 49.6309 73.2218 50.03 72.9887 50.4896C73.0854 49.77 73.1771 49.1475 73.252 48.5229C73.4615 46.7756 73.4928 45.0223 73.3147 43.272C73.2677 42.807 73.5881 42.804 73.9502 42.6168L73.9496 42.6171Z" fill="#FF6060"/>
<path d="M19.7978 41.4886C20.1857 41.8968 20.2225 41.4394 20.4554 41.2716C20.4115 41.5974 20.3737 41.8741 20.3366 42.1474C20.2078 42.1856 20.0895 42.2211 19.8754 42.2843C20.4048 42.5908 20.2335 43.0178 20.2119 43.4154C20.1873 43.8652 20.2381 44.3347 20.1238 44.7601C19.9967 45.2338 20.1558 45.6686 20.1452 46.1212C20.1348 46.5936 20.1827 47.0685 20.2169 47.5413C20.2599 48.1314 20.2657 48.1302 19.6596 48.3617C19.4093 46.0705 19.462 43.8038 19.7968 41.4883L19.7978 41.4886Z" fill="#FF6060"/>
<path d="M21.4224 63.1987L17.594 55.3559L20.8336 53.7742C21.4208 53.4875 21.9793 53.3461 22.509 53.3498C23.0401 53.3498 23.5177 53.4896 23.942 53.7693C24.365 54.0465 24.7073 54.4532 24.969 54.9893C25.2344 55.5331 25.3413 56.0531 25.2896 56.5494C25.2366 57.0432 25.0404 57.4962 24.7011 57.9085C24.3605 58.3182 23.8915 58.6689 23.2942 58.9606L21.2455 59.9608L20.5164 58.4673L22.2128 57.6391C22.4987 57.4995 22.7194 57.3459 22.8747 57.1784C23.0313 57.0071 23.122 56.8205 23.1468 56.6187C23.1704 56.4144 23.123 56.191 23.0046 55.9484C22.8862 55.7059 22.7386 55.5298 22.5617 55.4201C22.3837 55.3079 22.1783 55.2596 21.9456 55.2751C21.7118 55.2882 21.4531 55.3639 21.1697 55.5022L20.2354 55.9584L23.3179 62.2732L21.4224 63.1987ZM24.0879 57.4586L27.7905 60.0895L25.7227 61.0991L22.0584 58.4495L24.0879 57.4586ZM28.5621 59.7128L24.7338 51.87L30.2021 49.2001L30.9535 50.7396L27.3808 52.484L28.1659 54.0923L31.4591 52.4845L32.2124 54.0277L28.9192 55.6356L29.7062 57.2478L33.2789 55.5035L34.0304 57.0429L28.5621 59.7128ZM34.5751 47.065L36.4439 46.1526L39.0908 51.5752C39.3362 52.0845 39.4318 52.5879 39.3775 53.0855C39.322 53.5805 39.1334 54.0361 38.8118 54.4523C38.4928 54.8673 38.0563 55.2101 37.5023 55.4806C37.0122 55.7199 36.5249 55.8518 36.0407 55.8765C35.5589 55.8999 35.1115 55.7895 34.6983 55.5455C34.2878 55.3002 33.9467 54.8961 33.675 54.3332L35.5629 53.4115C35.669 53.6094 35.7914 53.763 35.9301 53.8723C36.0702 53.9779 36.2202 54.0358 36.3801 54.0462C36.5401 54.0566 36.7069 54.0195 36.8805 53.9347C37.0618 53.8462 37.1963 53.7331 37.284 53.5955C37.3704 53.4553 37.4082 53.293 37.3972 53.1086C37.3888 52.923 37.3304 52.716 37.2221 52.4876L34.5751 47.065ZM41.4622 53.4144L37.6338 45.5717L43.1021 42.9018L43.8535 44.4413L40.2808 46.1856L41.0659 47.794L44.3591 46.1861L45.1124 47.7294L41.8192 49.3373L42.6062 50.9495L46.179 49.2051L46.9304 50.7446L41.4622 53.4144ZM52.7949 41.688L50.8802 42.6229C50.7588 42.4387 50.6198 42.2869 50.4634 42.1672C50.307 42.0476 50.1363 41.9634 49.9513 41.9146C49.7662 41.8658 49.57 41.8557 49.3627 41.8843C49.1566 41.909 48.9464 41.9737 48.7319 42.0784C48.3515 42.2641 48.069 42.5175 47.8842 42.8385C47.7021 43.1582 47.6229 43.5304 47.6468 43.955C47.6733 44.3783 47.8086 44.8402 48.0529 45.3406C48.3071 45.8614 48.5943 46.2618 48.9143 46.5418C49.2357 46.818 49.5753 46.9794 49.9331 47.026C50.2922 47.0688 50.6582 46.9992 51.0309 46.8172C51.2402 46.715 51.4173 46.5954 51.5622 46.4583C51.7096 46.3199 51.8235 46.1679 51.9039 46.0022C51.9855 45.8327 52.0323 45.6533 52.0443 45.4641C52.0576 45.2711 52.0347 45.0721 51.9757 44.8669L53.8959 43.9436C54.0322 44.307 54.0984 44.6984 54.0944 45.1176C54.0929 45.5356 54.0146 45.9548 53.8594 46.3752C53.703 46.793 53.4553 47.1858 53.1164 47.5536C52.78 47.9202 52.3425 48.2349 51.8039 48.4979C51.0942 48.8444 50.3825 48.9991 49.6688 48.9618C48.9565 48.9208 48.2917 48.6794 47.6747 48.2378C47.0576 47.7961 46.5391 47.1451 46.1191 46.2847C45.6979 45.4218 45.5055 44.61 45.542 43.8493C45.5784 43.0885 45.8015 42.4153 46.2111 41.8296C46.6207 41.244 47.1739 40.781 47.8709 40.4407C48.3457 40.2089 48.8172 40.0609 49.2853 39.9967C49.7523 39.93 50.2006 39.9482 50.6303 40.0514C51.0588 40.152 51.4578 40.3381 51.8275 40.6097C52.1972 40.8813 52.5196 41.2407 52.7949 41.688ZM52.9874 39.9817L52.236 38.4423L58.8645 35.2059L59.616 36.7454L57.238 37.9064L60.3149 44.2097L58.4461 45.1221L55.3693 38.8188L52.9874 39.9817ZM63.6186 42.5967L59.7903 34.7539L65.2585 32.0841L66.01 33.6236L62.4372 35.3679L63.2223 36.9763L66.5156 35.3684L67.2689 36.9117L63.9757 38.5196L64.7626 40.1318L68.3354 38.3874L69.0869 39.9269L63.6186 42.5967ZM73.1727 37.932L70.274 39.3473L66.4456 31.5045L69.3406 30.0911C70.1396 29.7009 70.9043 29.522 71.6345 29.5544C72.366 29.5829 73.0321 29.8141 73.6328 30.248C74.2321 30.6793 74.7306 31.3022 75.1281 32.1166C75.5269 32.9335 75.7126 33.7122 75.6853 34.4527C75.6604 35.192 75.4349 35.8601 75.0087 36.457C74.5812 37.0514 73.9692 37.5431 73.1727 37.932ZM71.3806 36.8058L72.3111 36.3515C72.7502 36.1371 73.0855 35.8817 73.3171 35.5853C73.5499 35.2851 73.6619 34.9285 73.6531 34.5154C73.6457 34.0986 73.5042 33.6081 73.2288 33.0439C72.9534 32.4797 72.6549 32.069 72.3334 31.8118C72.0106 31.5521 71.6586 31.4236 71.2775 31.4264C70.8976 31.4253 70.483 31.5345 70.0337 31.7539L69.13 32.1951L71.3806 36.8058Z" fill="#FF6060"/>
</svg>
