<svg width="57" height="56" viewBox="0 0 57 56" fill="none" xmlns="http://www.w3.org/2000/svg">
<rect x="0.5" width="56" height="56" rx="28" fill="#898989" fill-opacity="0.15"/>
<path d="M28.7128 27.4927C28.6728 27.4927 28.6461 27.4927 28.6061 27.4927C28.5395 27.4793 28.4461 27.4793 28.3661 27.4927C24.4995 27.3727 21.5795 24.3327 21.5795 20.586C21.5795 16.7727 24.6861 13.666 28.4995 13.666C32.3128 13.666 35.4195 16.7727 35.4195 20.586C35.4061 24.3327 32.4728 27.3727 28.7528 27.4927C28.7395 27.4927 28.7261 27.4927 28.7128 27.4927ZM28.4995 15.666C25.7928 15.666 23.5795 17.8793 23.5795 20.586C23.5795 23.2527 25.6595 25.3993 28.3128 25.4927C28.3795 25.4793 28.5661 25.4793 28.7395 25.4927C31.3528 25.3727 33.4061 23.226 33.4195 20.586C33.4195 17.8793 31.2061 15.666 28.4995 15.666Z" fill="#54565B" fill-opacity="0.38"/>
<path d="M28.7261 42.0673C26.1128 42.0673 23.4861 41.4006 21.4995 40.0673C19.6461 38.8406 18.6328 37.1607 18.6328 35.334C18.6328 33.5073 19.6461 31.814 21.4995 30.574C25.4995 27.9207 31.9795 27.9207 35.9528 30.574C37.7928 31.8007 38.8195 33.4806 38.8195 35.3073C38.8195 37.134 37.8061 38.8273 35.9528 40.0673C33.9528 41.4006 31.3395 42.0673 28.7261 42.0673ZM22.6061 32.254C21.3261 33.1073 20.6328 34.2007 20.6328 35.3473C20.6328 36.4807 21.3395 37.574 22.6061 38.414C25.9261 40.6406 31.5261 40.6406 34.8461 38.414C36.1261 37.5606 36.8195 36.4673 36.8195 35.3206C36.8195 34.1873 36.1128 33.094 34.8461 32.254C31.5261 30.0407 25.9261 30.0407 22.6061 32.254Z" fill="#54565B" fill-opacity="0.38"/>
</svg>
