<svg width="24" height="24" viewBox="0 0 24 24" fill="none" xmlns="http://www.w3.org/2000/svg">
<path d="M9 3.75H6.25C5.69772 3.75 5.25 4.19772 5.25 4.75V20.75C5.25 21.3023 5.69772 21.75 6.25 21.75H17.75C18.3023 21.75 18.75 21.3023 18.75 20.75V4.75C18.75 4.19772 18.3023 3.75 17.75 3.75H15M7.5 15.75H16.5M10.5 14.25V17.25M7.5 11.25H16.5M13.5 9.75V12.75M15.1894 4.49254L15.4394 3.49254C15.5972 2.86139 15.1198 2.25 14.4692 2.25H9.53078C8.88021 2.25 8.40285 2.86139 8.56063 3.49254L8.81063 4.49254C8.92193 4.9377 9.32191 5.25 9.78078 5.25H14.2192C14.6781 5.25 15.0781 4.9377 15.1894 4.49254Z" stroke="#3F3F46" stroke-linejoin="round"/>
</svg>
