<svg width="30" height="30" viewBox="0 0 30 30" fill="none" xmlns="http://www.w3.org/2000/svg">
<path d="M14.87 22.5C14.87 22.7486 14.7712 22.9871 14.5954 23.1629C14.4196 23.3387 14.1811 23.4375 13.9325 23.4375C9.1925 23.4375 5.3125 19.6812 5.3125 15C5.3125 10.3188 9.1925 6.5625 13.9325 6.5625C17.8138 6.5625 21.1187 9.08125 22.1887 12.5637L22.9425 11.2888C23.069 11.0746 23.2753 10.9194 23.5162 10.8574C23.7571 10.7954 24.0127 10.8317 24.2269 10.9581C24.441 11.0846 24.5962 11.291 24.6582 11.5318C24.7202 11.7727 24.684 12.0283 24.5575 12.2425L22.52 15.6862C22.3952 15.8975 22.1926 16.0514 21.9557 16.115C21.7187 16.1786 21.4662 16.1467 21.2525 16.0262L17.725 14.0375C17.6177 13.977 17.5234 13.896 17.4475 13.799C17.3715 13.7021 17.3154 13.5912 17.2823 13.4725C17.2492 13.3539 17.2398 13.2299 17.2547 13.1077C17.2695 12.9854 17.3083 12.8673 17.3687 12.76C17.4292 12.6527 17.5103 12.5584 17.6072 12.4825C17.7041 12.4065 17.8151 12.3504 17.9337 12.3173C18.0523 12.2842 18.1763 12.2748 18.2986 12.2897C18.4208 12.3045 18.539 12.3433 18.6462 12.4038L20.4862 13.4413C19.7688 10.5813 17.1225 8.4375 13.9338 8.4375C10.1863 8.4375 7.1875 11.3963 7.1875 15C7.1875 18.6038 10.1862 21.5625 13.9325 21.5625C14.1811 21.5625 14.4196 21.6613 14.5954 21.8371C14.7712 22.0129 14.87 22.2514 14.87 22.5Z" fill="#7F56D9"/>
</svg>
