<svg width="30" height="30" viewBox="0 0 30 30" fill="none" xmlns="http://www.w3.org/2000/svg">
<path d="M22.5 11.25L21.45 21.7475C21.2912 23.3388 21.2125 24.1338 20.85 24.735C20.5321 25.2643 20.0645 25.6875 19.5062 25.9512C18.8725 26.25 18.075 26.25 16.475 26.25H13.525C11.9262 26.25 11.1275 26.25 10.4938 25.95C9.93506 25.6864 9.46702 25.2632 9.14875 24.7338C8.78875 24.1338 8.70875 23.3388 8.54875 21.7475L7.5 11.25M16.875 19.375V13.125M13.125 19.375V13.125M5.625 8.125H11.3937M11.3937 8.125L11.8763 4.785C12.0163 4.1775 12.5212 3.75 13.1012 3.75H16.8988C17.4788 3.75 17.9825 4.1775 18.1237 4.785L18.6063 8.125M11.3937 8.125H18.6063M18.6063 8.125H24.375" stroke="#C00F0C" stroke-width="1.875" stroke-linecap="round" stroke-linejoin="round"/>
</svg>
